<svg width="251" height="49" viewBox="0 0 251 49" fill="none" xmlns="http://www.w3.org/2000/svg">
<path d="M32.288 40.256V48H0.736V2.56H31.712V10.304H9.568V21.248H28.704V28.416H9.568V40.256H32.288ZM35.6685 31.232C35.6685 27.9893 36.3085 25.0667 37.5885 22.464C38.8685 19.8187 40.6392 17.728 42.9005 16.192C45.1618 14.656 47.7432 13.888 50.6445 13.888C53.1192 13.888 55.3378 14.5067 57.3005 15.744C59.3058 16.9387 60.8632 18.4747 61.9725 20.352V1.28H70.5485V38.4C70.5485 39.296 70.6978 39.936 70.9965 40.32C71.2952 40.704 71.8072 40.9387 72.5325 41.024V48C71.0392 48.2987 69.8232 48.448 68.8845 48.448C67.3485 48.448 66.0685 48.064 65.0445 47.296C64.0632 46.528 63.5085 45.5253 63.3805 44.288L63.2525 42.176C62.0152 44.2667 60.3298 45.8667 58.1965 46.976C56.1058 48.0853 53.9085 48.64 51.6045 48.64C49.3005 48.64 47.1672 48.192 45.2045 47.296C43.2845 46.4 41.5992 45.1627 40.1485 43.584C38.7405 42.0053 37.6312 40.1707 36.8205 38.08C36.0525 35.9467 35.6685 33.664 35.6685 31.232ZM61.9725 35.712V27.712C61.5458 26.4747 60.8632 25.3653 59.9245 24.384C58.9858 23.4027 57.9405 22.6347 56.7885 22.08C55.6365 21.4827 54.4845 21.184 53.3325 21.184C52.0098 21.184 50.8152 21.4613 49.7485 22.016C48.6818 22.5707 47.7432 23.3173 46.9325 24.256C46.1645 25.1947 45.5672 26.2827 45.1405 27.52C44.7565 28.7573 44.5645 30.0587 44.5645 31.424C44.5645 32.7893 44.7778 34.0907 45.2045 35.328C45.6738 36.5227 46.3352 37.568 47.1885 38.464C48.0418 39.36 49.0232 40.064 50.1325 40.576C51.2845 41.088 52.5218 41.344 53.8445 41.344C54.6552 41.344 55.4658 41.216 56.2765 40.96C57.1298 40.6613 57.9192 40.2773 58.6445 39.808C59.4125 39.296 60.0738 38.6987 60.6285 38.016C61.2258 37.2907 61.6738 36.5227 61.9725 35.712ZM78.6465 35.456V14.464H87.2225V33.6C87.2225 36.16 87.6918 38.1013 88.6305 39.424C89.5692 40.704 90.9558 41.344 92.7905 41.344C93.8998 41.344 94.9878 41.1307 96.0545 40.704C97.1638 40.2347 98.1665 39.552 99.0625 38.656C100.001 37.76 100.791 36.6293 101.431 35.264V14.464H110.007V38.4C110.007 39.296 110.156 39.936 110.455 40.32C110.796 40.704 111.329 40.9387 112.055 41.024V48C111.201 48.128 110.476 48.2133 109.879 48.256C109.324 48.3413 108.812 48.384 108.343 48.384C106.807 48.384 105.548 48.0427 104.567 47.36C103.628 46.6347 103.073 45.6533 102.903 44.416L102.711 41.728C101.217 43.9893 99.2972 45.7173 96.9505 46.912C94.6038 48.064 92.0225 48.64 89.2065 48.64C85.7505 48.64 83.1265 47.5307 81.3345 45.312C79.5425 43.0507 78.6465 39.7653 78.6465 35.456ZM146.433 14.464C146.134 14.1653 145.58 13.76 144.769 13.248C144.001 12.736 143.041 12.2453 141.889 11.776C140.78 11.3067 139.564 10.9013 138.241 10.56C136.918 10.176 135.574 9.984 134.209 9.984C131.82 9.984 130.006 10.432 128.769 11.328C127.574 12.224 126.977 13.4827 126.977 15.104C126.977 16.3413 127.361 17.3227 128.129 18.048C128.897 18.7733 130.049 19.392 131.585 19.904C133.121 20.416 135.041 20.9707 137.345 21.568C140.332 22.2933 142.913 23.1893 145.089 24.256C147.308 25.28 148.993 26.6453 150.145 28.352C151.34 30.016 151.937 32.2347 151.937 35.008C151.937 37.44 151.489 39.5307 150.593 41.28C149.697 42.9867 148.46 44.3733 146.881 45.44C145.302 46.5067 143.51 47.296 141.505 47.808C139.5 48.2773 137.366 48.512 135.105 48.512C132.844 48.512 130.582 48.2773 128.321 47.808C126.06 47.3387 123.884 46.6773 121.793 45.824C119.702 44.928 117.782 43.8613 116.033 42.624L119.937 35.008C120.321 35.392 121.004 35.904 121.985 36.544C122.966 37.1413 124.161 37.76 125.569 38.4C126.977 38.9973 128.513 39.5093 130.177 39.936C131.841 40.3627 133.526 40.576 135.233 40.576C137.622 40.576 139.436 40.1707 140.673 39.36C141.91 38.5493 142.529 37.3973 142.529 35.904C142.529 34.5387 142.038 33.472 141.057 32.704C140.076 31.936 138.71 31.2747 136.961 30.72C135.212 30.1227 133.142 29.4827 130.753 28.8C127.894 27.9893 125.505 27.0933 123.585 26.112C121.665 25.088 120.236 23.808 119.297 22.272C118.358 20.736 117.889 18.816 117.889 16.512C117.889 13.3973 118.614 10.7947 120.065 8.704C121.558 6.57066 123.564 4.97066 126.081 3.904C128.598 2.79467 131.393 2.24 134.465 2.24C136.598 2.24 138.604 2.47466 140.481 2.944C142.401 3.41333 144.193 4.032 145.857 4.8C147.521 5.568 149.014 6.4 150.337 7.296L146.433 14.464ZM155.35 38.08C155.35 35.904 155.947 34.0053 157.142 32.384C158.379 30.72 160.086 29.44 162.262 28.544C164.438 27.648 166.934 27.2 169.75 27.2C171.158 27.2 172.587 27.3067 174.038 27.52C175.489 27.7333 176.747 28.0747 177.814 28.544V26.752C177.814 24.6187 177.174 22.976 175.894 21.824C174.657 20.672 172.801 20.096 170.326 20.096C168.491 20.096 166.742 20.416 165.078 21.056C163.414 21.696 161.665 22.6347 159.83 23.872L157.078 18.24C159.297 16.7893 161.558 15.7013 163.862 14.976C166.209 14.2507 168.662 13.888 171.222 13.888C176.001 13.888 179.713 15.0827 182.358 17.472C185.046 19.8613 186.39 23.2747 186.39 27.712V38.4C186.39 39.296 186.539 39.936 186.838 40.32C187.179 40.704 187.713 40.9387 188.438 41.024V48C187.67 48.128 186.966 48.2347 186.326 48.32C185.729 48.4053 185.217 48.448 184.79 48.448C183.083 48.448 181.782 48.064 180.886 47.296C180.033 46.528 179.499 45.5893 179.286 44.48L179.094 42.752C177.643 44.6293 175.83 46.08 173.654 47.104C171.478 48.128 169.259 48.64 166.998 48.64C164.779 48.64 162.774 48.192 160.982 47.296C159.233 46.3573 157.846 45.0987 156.822 43.52C155.841 41.8987 155.35 40.0853 155.35 38.08ZM176.214 39.808C176.683 39.296 177.067 38.784 177.366 38.272C177.665 37.76 177.814 37.2907 177.814 36.864V33.472C176.79 33.0453 175.681 32.7253 174.486 32.512C173.291 32.256 172.161 32.128 171.094 32.128C168.875 32.128 167.041 32.6187 165.59 33.6C164.182 34.5387 163.478 35.7973 163.478 37.376C163.478 38.2293 163.713 39.04 164.182 39.808C164.651 40.576 165.334 41.1947 166.23 41.664C167.126 42.1333 168.193 42.368 169.43 42.368C170.71 42.368 171.969 42.1333 173.206 41.664C174.443 41.152 175.446 40.5333 176.214 39.808ZM196.327 48V22.784H191.911V16.256H196.327V14.208C196.327 11.4347 196.775 9.04533 197.671 7.04C198.61 4.992 199.911 3.41333 201.575 2.304C203.282 1.19467 205.266 0.639999 207.527 0.639999C208.892 0.639999 210.258 0.810665 211.623 1.152C213.031 1.49333 214.418 1.984 215.783 2.624L214.055 9.088C213.415 8.74666 212.668 8.46933 211.815 8.256C210.962 8 210.151 7.872 209.383 7.872C207.932 7.872 206.823 8.384 206.055 9.408C205.287 10.432 204.903 11.9253 204.903 13.888V16.256H213.095V22.784H204.903V48H196.327ZM233.081 48.64C230.393 48.64 227.961 48.192 225.785 47.296C223.609 46.3573 221.753 45.0987 220.217 43.52C218.681 41.8987 217.486 40.064 216.633 38.016C215.822 35.9253 215.417 33.728 215.417 31.424C215.417 28.224 216.121 25.3013 217.529 22.656C218.98 20.0107 221.028 17.8987 223.673 16.32C226.361 14.6987 229.518 13.888 233.145 13.888C236.814 13.888 239.95 14.6987 242.553 16.32C245.156 17.8987 247.14 20.0107 248.505 22.656C249.913 25.2587 250.617 28.0747 250.617 31.104C250.617 31.616 250.596 32.1493 250.553 32.704C250.51 33.216 250.468 33.6427 250.425 33.984H224.505C224.676 35.6907 225.166 37.184 225.977 38.464C226.83 39.744 227.897 40.7253 229.177 41.408C230.5 42.048 231.908 42.368 233.401 42.368C235.108 42.368 236.708 41.9627 238.201 41.152C239.737 40.2987 240.782 39.1893 241.337 37.824L248.697 39.872C247.886 41.5787 246.713 43.0933 245.177 44.416C243.684 45.7387 241.913 46.784 239.865 47.552C237.817 48.2773 235.556 48.64 233.081 48.64ZM224.313 28.544H241.849C241.678 26.8373 241.188 25.3653 240.377 24.128C239.609 22.848 238.585 21.8667 237.305 21.184C236.025 20.4587 234.596 20.096 233.017 20.096C231.481 20.096 230.073 20.4587 228.793 21.184C227.556 21.8667 226.532 22.848 225.721 24.128C224.953 25.3653 224.484 26.8373 224.313 28.544Z" fill="url(#paint0_linear_103_2)"/>
<defs>
<linearGradient id="paint0_linear_103_2" x1="126.5" y1="-9.91667" x2="110.381" y2="50.7023" gradientUnits="userSpaceOnUse">
<stop stop-color="#00F260"/>
<stop offset="1" stop-color="#0575E6"/>
</linearGradient>
</defs>
</svg>
