<svg width="244" height="51" viewBox="0 0 244 51" fill="none" xmlns="http://www.w3.org/2000/svg">
<path d="M0.12 50V5.648H30.072V14.032H10.104V22.736H27.832V30.928H10.104V41.616H31.544V50H0.12ZM45.6705 32.912C45.6705 35.856 46.3318 38.224 47.6545 40.016C48.9772 41.808 50.9398 42.704 53.5425 42.704C54.3958 42.704 55.1852 42.6827 55.9105 42.64C56.6358 42.5547 57.2332 42.4693 57.7025 42.384V25.04C57.1052 24.656 56.3158 24.336 55.3345 24.08C54.3958 23.824 53.4358 23.696 52.4545 23.696C47.9318 23.696 45.6705 26.768 45.6705 32.912ZM67.2385 48.912C66.3852 49.168 65.4038 49.424 64.2945 49.68C63.1852 49.8933 62.0118 50.0853 60.7745 50.256C59.5798 50.4267 58.3425 50.5547 57.0625 50.64C55.8252 50.768 54.6305 50.832 53.4785 50.832C50.7052 50.832 48.2305 50.4267 46.0545 49.616C43.8785 48.8053 42.0438 47.6533 40.5505 46.16C39.0572 44.624 37.9052 42.7893 37.0945 40.656C36.3265 38.48 35.9425 36.048 35.9425 33.36C35.9425 30.6293 36.2838 28.176 36.9665 26C37.6492 23.7813 38.6305 21.904 39.9105 20.368C41.1905 18.832 42.7478 17.6587 44.5825 16.848C46.4598 16.0373 48.5932 15.632 50.9825 15.632C52.3052 15.632 53.4785 15.76 54.5025 16.016C55.5692 16.272 56.6358 16.6347 57.7025 17.104V1.872L67.2385 0.335999V48.912ZM104.904 48.848C103.282 49.3173 101.192 49.744 98.6315 50.128C96.0715 50.5547 93.3835 50.768 90.5675 50.768C87.7088 50.768 85.3195 50.384 83.3995 49.616C81.5222 48.848 80.0288 47.7813 78.9195 46.416C77.8102 45.008 77.0208 43.344 76.5515 41.424C76.0822 39.504 75.8475 37.392 75.8475 35.088V16.336H85.3835V33.936C85.3835 37.008 85.7888 39.2267 86.5995 40.592C87.4102 41.9573 88.9248 42.64 91.1435 42.64C91.8262 42.64 92.5515 42.6187 93.3195 42.576C94.0875 42.4907 94.7702 42.4053 95.3675 42.32V16.336H104.904V48.848ZM126.591 42.384C127.999 42.384 129.151 42.2773 130.047 42.064C130.986 41.808 131.732 41.488 132.287 41.104C132.842 40.6773 133.226 40.1867 133.439 39.632C133.652 39.0773 133.759 38.4587 133.759 37.776C133.759 36.3253 133.076 35.1307 131.711 34.192C130.346 33.2107 127.999 32.1653 124.671 31.056C123.22 30.544 121.77 29.968 120.319 29.328C118.868 28.6453 117.567 27.8133 116.415 26.832C115.263 25.808 114.324 24.592 113.599 23.184C112.874 21.7333 112.511 19.984 112.511 17.936C112.511 15.888 112.895 14.0533 113.663 12.432C114.431 10.768 115.519 9.36 116.927 8.208C118.335 7.056 120.042 6.18133 122.047 5.584C124.052 4.944 126.314 4.624 128.831 4.624C131.818 4.624 134.399 4.944 136.575 5.584C138.751 6.224 140.543 6.928 141.951 7.696L139.071 15.568C137.834 14.928 136.447 14.3733 134.911 13.904C133.418 13.392 131.604 13.136 129.471 13.136C127.082 13.136 125.354 13.4773 124.287 14.16C123.263 14.8 122.751 15.8027 122.751 17.168C122.751 17.9787 122.943 18.6613 123.327 19.216C123.711 19.7707 124.244 20.2827 124.927 20.752C125.652 21.1787 126.463 21.584 127.359 21.968C128.298 22.3093 129.322 22.672 130.431 23.056C132.735 23.9093 134.74 24.7627 136.447 25.616C138.154 26.4267 139.562 27.3867 140.671 28.496C141.823 29.6053 142.676 30.9067 143.231 32.4C143.786 33.8933 144.063 35.7067 144.063 37.84C144.063 41.9787 142.612 45.2 139.711 47.504C136.81 49.7653 132.436 50.896 126.591 50.896C124.628 50.896 122.858 50.768 121.279 50.512C119.7 50.2987 118.292 50.0213 117.055 49.68C115.86 49.3387 114.815 48.976 113.919 48.592C113.066 48.208 112.34 47.8453 111.743 47.504L114.559 39.568C115.882 40.2933 117.503 40.9547 119.423 41.552C121.386 42.1067 123.775 42.384 126.591 42.384ZM164.719 43.344C165.658 43.344 166.554 43.3227 167.407 43.28C168.26 43.2373 168.943 43.1733 169.455 43.088V35.856C169.071 35.7707 168.495 35.6853 167.727 35.6C166.959 35.5147 166.255 35.472 165.615 35.472C164.719 35.472 163.866 35.536 163.055 35.664C162.287 35.7493 161.604 35.9413 161.007 36.24C160.41 36.5387 159.94 36.944 159.599 37.456C159.258 37.968 159.087 38.608 159.087 39.376C159.087 40.8693 159.578 41.9147 160.559 42.512C161.583 43.0667 162.97 43.344 164.719 43.344ZM163.951 15.44C166.767 15.44 169.114 15.76 170.991 16.4C172.868 17.04 174.362 17.9573 175.471 19.152C176.623 20.3467 177.434 21.7973 177.903 23.504C178.372 25.2107 178.607 27.1093 178.607 29.2V49.04C177.242 49.3387 175.343 49.68 172.911 50.064C170.479 50.4907 167.535 50.704 164.079 50.704C161.903 50.704 159.919 50.512 158.127 50.128C156.378 49.744 154.863 49.1253 153.583 48.272C152.303 47.376 151.322 46.224 150.639 44.816C149.956 43.408 149.615 41.68 149.615 39.632C149.615 37.6693 149.999 36.0053 150.767 34.64C151.578 33.2747 152.644 32.1867 153.967 31.376C155.29 30.5653 156.804 29.9893 158.511 29.648C160.218 29.264 161.988 29.072 163.823 29.072C165.06 29.072 166.148 29.136 167.087 29.264C168.068 29.3493 168.858 29.4773 169.455 29.648V28.752C169.455 27.1307 168.964 25.8293 167.983 24.848C167.002 23.8667 165.295 23.376 162.863 23.376C161.242 23.376 159.642 23.504 158.063 23.76C156.484 23.9733 155.119 24.2933 153.967 24.72L152.751 17.04C153.306 16.8693 153.988 16.6987 154.799 16.528C155.652 16.3147 156.57 16.144 157.551 16.016C158.532 15.8453 159.556 15.7173 160.623 15.632C161.732 15.504 162.842 15.44 163.951 15.44ZM201.822 0.335999C203.614 0.335999 205.257 0.527999 206.75 0.911999C208.243 1.25333 209.395 1.59466 210.206 1.936L208.35 9.552C207.497 9.168 206.558 8.89066 205.534 8.72C204.553 8.50666 203.635 8.4 202.782 8.4C201.63 8.4 200.649 8.57066 199.838 8.912C199.07 9.21066 198.451 9.63733 197.982 10.192C197.555 10.7467 197.235 11.408 197.022 12.176C196.851 12.944 196.766 13.776 196.766 14.672V16.336H208.542V24.272H196.766V50H187.23V14.544C187.23 10.192 188.446 6.736 190.878 4.176C193.353 1.616 197.001 0.335999 201.822 0.335999ZM212.13 33.424C212.13 30.4373 212.578 27.8347 213.474 25.616C214.413 23.3547 215.629 21.4773 217.122 19.984C218.615 18.4907 220.322 17.36 222.242 16.592C224.205 15.824 226.21 15.44 228.258 15.44C233.037 15.44 236.813 16.912 239.586 19.856C242.359 22.7573 243.746 27.0453 243.746 32.72C243.746 33.2747 243.725 33.8933 243.682 34.576C243.639 35.216 243.597 35.792 243.554 36.304H221.922C222.135 38.2667 223.053 39.824 224.674 40.976C226.295 42.128 228.471 42.704 231.202 42.704C232.951 42.704 234.658 42.5547 236.322 42.256C238.029 41.9147 239.415 41.5093 240.482 41.04L241.762 48.784C241.25 49.04 240.567 49.296 239.714 49.552C238.861 49.808 237.901 50.0213 236.834 50.192C235.81 50.4053 234.701 50.576 233.506 50.704C232.311 50.832 231.117 50.896 229.922 50.896C226.893 50.896 224.247 50.448 221.986 49.552C219.767 48.656 217.911 47.44 216.418 45.904C214.967 44.3253 213.879 42.4693 213.154 40.336C212.471 38.2027 212.13 35.8987 212.13 33.424ZM234.53 29.776C234.487 28.9653 234.338 28.176 234.082 27.408C233.869 26.64 233.506 25.9573 232.994 25.36C232.525 24.7627 231.906 24.272 231.138 23.888C230.413 23.504 229.495 23.312 228.386 23.312C227.319 23.312 226.402 23.504 225.634 23.888C224.866 24.2293 224.226 24.6987 223.714 25.296C223.202 25.8933 222.797 26.5973 222.498 27.408C222.242 28.176 222.05 28.9653 221.922 29.776H234.53Z" fill="url(#paint0_linear_103_2)"/>
<defs>
<linearGradient id="paint0_linear_103_2" x1="125.5" y1="-8.91667" x2="109.381" y2="51.7023" gradientUnits="userSpaceOnUse">
<stop stop-color="#00F260"/>
<stop offset="1" stop-color="#0575E6"/>
</linearGradient>
</defs>
</svg>
