<?xml version="1.0" encoding="utf-8"?>
<!-- Generator: Adobe Illustrator 27.5.0, SVG Export Plug-In . SVG Version: 6.00 Build 0)  -->
<svg version="1.1" id="PRINT" xmlns="http://www.w3.org/2000/svg" xmlns:xlink="http://www.w3.org/1999/xlink" x="0px" y="0px"
	 viewBox="0 0 595.276 841.89" style="enable-background:new 0 0 595.276 841.89;" xml:space="preserve">
<rect x="-8.504" y="-8.504" style="fill:#FFFFFF;" width="612.283" height="858.898"/>
<g>
	<rect x="34.356" y="316.529" style="fill:#E08D9B;" width="526.563" height="26.814"/>
	<rect x="34.357" y="372.021" style="fill:#E08D9B;" width="526.563" height="1.449"/>
	<rect x="34.357" y="401.425" style="fill:#E08D9B;" width="526.563" height="1.449"/>
	<rect x="34.357" y="430.827" style="fill:#E08D9B;" width="526.563" height="1.449"/>
	<rect x="34.357" y="460.23" style="fill:#E08D9B;" width="526.563" height="1.449"/>
	<rect x="34.357" y="489.634" style="fill:#E08D9B;" width="526.563" height="1.449"/>
	<rect x="34.357" y="519.037" style="fill:#E08D9B;" width="526.563" height="1.449"/>
	<rect x="34.357" y="548.439" style="fill:#E08D9B;" width="526.563" height="1.449"/>
	<rect x="34.357" y="577.842" style="fill:#E08D9B;" width="526.563" height="1.449"/>
	<rect x="34.357" y="607.245" style="fill:#E08D9B;" width="526.563" height="1.449"/>
	<rect x="34.357" y="636.649" style="fill:#E08D9B;" width="526.563" height="1.449"/>
	<g>
		<rect x="173.293" y="343.342" style="fill:#E08D9B;" width="1.449" height="323.434"/>
		<rect x="34.355" y="343.342" style="fill:#E08D9B;" width="1.449" height="323.434"/>
		<rect x="280.785" y="343.342" style="fill:#E08D9B;" width="1.449" height="323.434"/>
		<rect x="388.274" y="343.342" style="fill:#E08D9B;" width="1.449" height="323.434"/>
		<rect x="495.764" y="343.342" style="fill:#E08D9B;" width="1.449" height="323.434"/>
		<rect x="559.456" y="343.342" style="fill:#E08D9B;" width="1.449" height="323.434"/>
	</g>
	<g>
		<rect x="173.293" y="316.527" style="fill:#FFFFFF;" width="1.449" height="26.813"/>
		<rect x="280.785" y="316.527" style="fill:#FFFFFF;" width="1.449" height="26.813"/>
		<rect x="388.274" y="316.527" style="fill:#FFFFFF;" width="1.449" height="26.813"/>
		<rect x="495.764" y="316.527" style="fill:#FFFFFF;" width="1.449" height="26.813"/>
	</g>
</g>
<polygon style="fill:#E08D9B;" points="603.779,131.2 -8.504,147.543 -8.504,-8.504 603.779,-8.504 "/>
<g>
	<text transform="matrix(1 0 0 1 334.082 61.6104)"><tspan x="0" y="0" style="fill:#FFFFFF; font-family:'Grandstander-ExtraBold'; font-size:49.6937px;">progress</tspan><tspan x="63.11" y="50.22" style="fill:#FFFFFF; font-family:'Grandstander-ExtraBold'; font-size:49.6937px;">report</tspan></text>
</g>
<g>
	<text transform="matrix(1 0 0 1 47.7617 538.3721)" style="fill:#484B60; font-family:'Poppins-SemiBold'; font-size:15.4524px;">Ipsum dolor</text>
</g>
<g>
	<text transform="matrix(1 0 0 1 47.7617 597.2998)" style="fill:#484B60; font-family:'Poppins-SemiBold'; font-size:15.4524px;">Ipsum dolor</text>
</g>
<g>
	<text transform="matrix(1 0 0 1 47.7617 656.2285)" style="fill:#484B60; font-family:'Poppins-SemiBold'; font-size:15.4524px;">Ipsum dolor</text>
</g>
<text transform="matrix(1 0 0 1 301.2158 207.4604)" style="fill:#484B60; font-family:'Poppins-SemiBold'; font-size:13.5209px;">Lorem ipsum................................................</text>
<text transform="matrix(1 0 0 1 301.2422 235.3691)" style="fill:#484B60; font-family:'Poppins-SemiBold'; font-size:13.5209px;">Ut enim ad.....................................................</text>
<text transform="matrix(1 0 0 1 301.2148 263.2026)" style="fill:#484B60; font-family:'Poppins-SemiBold'; font-size:13.5209px;">Duis aute irure.............................................</text>
<text transform="matrix(1 0 0 1 301.2148 291.0332)" style="fill:#484B60; font-family:'Poppins-SemiBold'; font-size:13.5209px;">Lorem ipsum................................................</text>
<text transform="matrix(1 0 0 1 35.0786 702.9795)" style="fill:#484B60; font-family:'Poppins-SemiBold'; font-size:13.5209px;">COMMENT:</text>
<rect x="34.357" y="666.052" style="fill:#E08D9B;" width="526.563" height="1.449"/>
<g>
	<rect x="115.614" y="702.35" style="fill:#E08D9B;" width="238.858" height="1.449"/>
	<rect x="34.357" y="722.192" style="fill:#E08D9B;" width="320.115" height="1.449"/>
	<rect x="34.357" y="742.034" style="fill:#E08D9B;" width="320.115" height="1.449"/>
	<rect x="34.357" y="761.877" style="fill:#E08D9B;" width="320.115" height="1.449"/>
</g>
<text transform="matrix(1 0 0 1 52.772 335.2612)" style="fill:#FFFFFF; font-family:'Poppins-Bold'; font-size:15.4524px;">Lorem ipsum</text>
<text transform="matrix(1 0 0 1 47.7622 391.6523)" style="fill:#484B60; font-family:'Poppins-SemiBold'; font-size:15.4524px;">Lorem ipsum</text>
<text transform="matrix(1 0 0 1 47.7617 421.1123)" style="fill:#484B60; font-family:'Poppins-SemiBold'; font-size:15.4524px;">Duis aute irure</text>
<text transform="matrix(1 0 0 1 47.7617 627.4629)" style="fill:#484B60; font-family:'Poppins-SemiBold'; font-size:15.4524px;">Duis aute irure</text>
<text transform="matrix(1 0 0 1 47.7617 479.7461)" style="fill:#484B60; font-family:'Poppins-SemiBold'; font-size:15.4524px;">Duis aute irure</text>
<text transform="matrix(1 0 0 1 47.7627 362.918)" style="fill:#484B60; font-family:'Poppins-SemiBold'; font-size:15.4524px;">Duis aute irure</text>
<text transform="matrix(1 0 0 1 47.7627 509.8076)" style="fill:#484B60; font-family:'Poppins-SemiBold'; font-size:15.4524px;">Duis aute irure</text>
<text transform="matrix(1 0 0 1 47.7617 450.4502)" style="fill:#484B60; font-family:'Poppins-SemiBold'; font-size:15.4524px;">Lorem ipsum</text>
<text transform="matrix(1 0 0 1 47.7617 568.0127)" style="fill:#484B60; font-family:'Poppins-SemiBold'; font-size:15.4524px;">Lorem ipsum</text>
<g>
	<text transform="matrix(1 0 0 1 201.6089 335.3687)" style="fill:#FFFFFF; font-family:'Poppins-Bold'; font-size:15.4524px;">Lorem</text>
</g>
<g>
	<text transform="matrix(1 0 0 1 296.4429 335.3687)" style="fill:#FFFFFF; font-family:'Poppins-Bold'; font-size:15.4524px;">Duis aute</text>
</g>
<g>
	<text transform="matrix(1 0 0 1 502.9756 335.3687)" style="fill:#FFFFFF; font-family:'Poppins-Bold'; font-size:15.4524px;">Lorem</text>
</g>
<g>
	<text transform="matrix(1 0 0 1 399.6777 335.3687)" style="fill:#FFFFFF; font-family:'Poppins-Bold'; font-size:15.4524px;">Ut enim ad</text>
</g>
<g>
	<path style="fill:#E08D9B;" d="M293.402,208.184c-2.465,0-4.47-2.005-4.47-4.469c0-2.464,2.005-4.47,4.47-4.47
		c2.464,0,4.469,2.005,4.469,4.47C297.87,206.179,295.865,208.184,293.402,208.184z M293.402,200.694
		c-1.665,0-3.022,1.355-3.022,3.021s1.356,3.021,3.022,3.021c1.666,0,3.02-1.355,3.02-3.021S295.068,200.694,293.402,200.694z"/>
	<path style="fill:#E08D9B;" d="M293.402,236.215c-2.465,0-4.47-2.005-4.47-4.47c0-2.464,2.005-4.469,4.47-4.469
		c2.464,0,4.469,2.005,4.469,4.469C297.87,234.21,295.865,236.215,293.402,236.215z M293.402,228.724
		c-1.665,0-3.022,1.355-3.022,3.021s1.356,3.021,3.022,3.021c1.666,0,3.02-1.355,3.02-3.021S295.068,228.724,293.402,228.724z"/>
	<path style="fill:#E08D9B;" d="M293.402,263.927c-2.465,0-4.47-2.005-4.47-4.47c0-2.464,2.005-4.469,4.47-4.469
		c2.464,0,4.469,2.005,4.469,4.469C297.87,261.922,295.865,263.927,293.402,263.927z M293.402,256.437
		c-1.665,0-3.022,1.355-3.022,3.021c0,1.666,1.356,3.021,3.022,3.021c1.666,0,3.02-1.355,3.02-3.021
		C296.422,257.792,295.068,256.437,293.402,256.437z"/>
	<path style="fill:#E08D9B;" d="M293.402,291.639c-2.465,0-4.47-2.005-4.47-4.47c0-2.465,2.005-4.47,4.47-4.47
		c2.464,0,4.469,2.005,4.469,4.47C297.87,289.634,295.865,291.639,293.402,291.639z M293.402,284.149
		c-1.665,0-3.022,1.355-3.022,3.021c0,1.665,1.356,3.021,3.022,3.021c1.666,0,3.02-1.355,3.02-3.021
		C296.422,285.504,295.068,284.149,293.402,284.149z"/>
</g>
<g>
	<g>
		<polygon style="fill:#F7ECEB;" points="34.356,793.276 61.635,821.392 94.946,820.527 125.597,789.937 78.553,795.732 		"/>
		<polygon style="fill:#F7ECEB;" points="57.741,794.576 77.586,775.463 99.312,793.175 78.553,795.732 		"/>
		<polygon style="fill:#EAD9D8;" points="78.553,795.732 61.635,821.392 94.946,820.527 		"/>
		<polygon style="fill:#E5CDCC;" points="78.611,796.211 57.715,795.059 57.768,794.093 78.579,795.249 99.253,792.695 
			99.369,793.654 		"/>
		<polygon style="fill:#EAD9D8;" points="76.059,776.933 78.29,792.884 79.211,776.788 77.586,775.463 		"/>
	</g>
	<g>
		<path style="fill:#F7ECEB;" d="M114.892,810.138c-0.53-0.053-0.949-0.528-0.894-1.058c0.053-0.534,0.517-0.924,1.026-0.868
			l-0.096,0.96l0.117-0.958L114.892,810.138z"/>
		<path style="fill:#F7ECEB;" d="M132.813,810.917c-0.528,0-1.054-0.422-1.062-0.949c-0.008-0.528,0.313-0.964,0.841-0.979
			c0.009,0,0.211-0.004,0.221-0.004c0.534,0,0.966,0.432,0.966,0.966S133.347,810.917,132.813,810.917z M126.866,810.898
			c-0.009,0-0.019,0-0.028,0c-0.534-0.017-1.049-0.464-1.034-0.998c0.015-0.534,0.328-0.905,0.898-0.939l0.192,0.006
			c0.534,0.017,0.953,0.46,0.938,0.994C127.816,810.485,127.386,810.898,126.866,810.898z M138.753,810.683
			c-0.513,0-1.028-0.391-1.058-0.904c-0.032-0.532,0.279-0.985,0.811-1.015l0.192-0.011c0.545-0.062,0.988,0.375,1.02,0.907
			c0.032,0.532-0.375,0.99-0.907,1.021C138.793,810.683,138.772,810.683,138.753,810.683z M120.922,810.636
			c-0.03,0-0.059-0.002-0.087-0.004c-0.526-0.047-1.013-0.513-0.975-1.039c0.04-0.526,0.392-0.964,0.924-0.9
			c0.009,0,0.211,0.015,0.221,0.015c0.532,0.047,0.924,0.515,0.877,1.047C121.839,810.257,121.416,810.636,120.922,810.636z
			 M144.672,810.187c-0.498,0-1-0.36-1.053-0.855c-0.055-0.526,0.228-0.988,0.753-1.049c0.01-0.002,0.208-0.023,0.217-0.025
			c0.473-0.04,1,0.343,1.049,0.875c0.047,0.53-0.343,1-0.875,1.049C144.733,810.185,144.702,810.187,144.672,810.187z
			 M150.38,809.457c-0.47,0-0.883-0.345-0.954-0.826c-0.077-0.526,0.289-1.017,0.817-1.096l0.139,0.956l0.045-0.983
			c0.528-0.07,1.02,0.283,1.1,0.809c0.081,0.528-0.283,1.021-0.809,1.1c-0.002,0-0.194,0.028-0.196,0.03
			C150.475,809.453,150.427,809.457,150.38,809.457z M156.237,808.448c-0.456,0-0.864-0.326-0.949-0.792
			c-0.094-0.526,0.253-1.028,0.777-1.124l0.174,0.951l-0.006-0.981c0.513-0.121,1.032,0.226,1.139,0.751
			c0.109,0.522-0.228,1.032-0.751,1.139c-0.008,0.002-0.204,0.04-0.209,0.041C156.354,808.442,156.296,808.448,156.237,808.448z
			 M162.222,807.152c-0.456,0-0.919-0.289-1.02-0.732c-0.117-0.515,0.108-1.007,0.621-1.132c0.009-0.002,0.206-0.047,0.215-0.049
			c0.513-0.096,1.036,0.221,1.145,0.745c0.111,0.521-0.222,1.034-0.745,1.145C162.368,807.144,162.294,807.152,162.222,807.152z
			 M167.809,805.713c-0.424,0-0.815-0.283-0.932-0.711c-0.14-0.515,0.162-1.047,0.677-1.187l0.255,0.932l-0.077-0.981
			c0.524-0.143,1.049,0.156,1.192,0.668c0.143,0.515-0.155,1.047-0.668,1.192c-0.004,0-0.191,0.053-0.192,0.053
			C167.979,805.701,167.893,805.713,167.809,805.713z M173.672,803.985c-0.43,0-0.862-0.247-0.988-0.656
			c-0.157-0.509,0.036-1.021,0.543-1.179c0.004,0,0.189-0.058,0.192-0.058c0.507-0.153,1.049,0.134,1.204,0.645
			c0.155,0.509-0.134,1.049-0.645,1.203C173.88,803.97,173.776,803.985,173.672,803.985z M383.021,803.596
			c-0.534,0-0.966-0.432-0.966-0.966c0-0.534,0.432-0.966,0.966-0.966v0.966l0.164-0.968c0.485,0.04,0.979,0.404,0.994,0.938
			c0.015,0.534-0.404,0.977-0.938,0.994C383.232,803.594,383.03,803.596,383.021,803.596z M377.264,803.57
			c-0.009,0-0.211-0.004-0.221-0.004c-0.534-0.017-0.953-0.46-0.938-0.994s0.464-0.975,0.994-0.938l-0.028,0.966l0.192-0.962
			c0.534,0,0.966,0.432,0.966,0.966C378.23,803.138,377.798,803.57,377.264,803.57z M389.163,803.472
			c-0.524,0-1.047-0.411-1.062-0.934c-0.015-0.534,0.307-0.975,0.841-0.992l0.192-0.006c0.577-0.051,0.979,0.404,0.994,0.938
			c0.015,0.534-0.404,0.977-0.938,0.994C389.182,803.472,389.172,803.472,389.163,803.472z M371.322,803.387
			c-0.009,0-0.019,0-0.028,0s-0.211-0.011-0.221-0.011c-0.532-0.03-0.939-0.489-0.907-1.021c0.03-0.532,0.479-0.96,1.021-0.907
			l-0.057,0.964l0.221-0.956c0.534,0.017,0.953,0.46,0.938,0.994C372.273,802.974,371.843,803.387,371.322,803.387z
			 M395.105,803.213c-0.517,0-1.035-0.402-1.06-0.919c-0.023-0.526,0.287-0.971,0.813-1.002c0.01,0,0.211-0.011,0.221-0.011
			c0.572-0.004,0.979,0.404,0.994,0.937c0.015,0.534-0.404,0.977-0.938,0.994C395.125,803.213,395.116,803.213,395.105,803.213z
			 M365.388,803.034c-0.021,0-0.04,0-0.06-0.002c-0.009,0-0.207-0.017-0.217-0.017c-0.532-0.047-0.924-0.515-0.877-1.047
			c0.045-0.53,0.526-0.902,1.047-0.877l-0.085,0.962l0.249-0.949c0.532,0.032,0.938,0.49,0.905,1.022
			C366.32,802.64,365.894,803.034,365.388,803.034z M401.041,802.825c-0.509,0-1.019-0.379-1.056-0.886
			c-0.04-0.526,0.257-0.979,0.783-1.026c0.01,0,0.208-0.017,0.217-0.017c0.56-0.047,0.99,0.373,1.022,0.905
			c0.032,0.532-0.374,0.99-0.905,1.022C401.08,802.825,401.06,802.825,401.041,802.825z M359.352,802.504
			c-0.528-0.064-1-0.555-0.938-1.083c0.064-0.53,0.466-0.921,0.977-0.854l-0.113,0.958l0.19-0.951v0.971L359.352,802.504z
			 M406.781,802.342c-0.494,0-0.917-0.379-0.96-0.881c-0.047-0.532,0.345-1,0.877-1.047l0.085,0.962l0.104-0.979
			c0.506-0.032,1,0.341,1.049,0.875c0.049,0.53-0.343,1-0.875,1.049l-0.192,0.017C406.839,802.34,406.809,802.342,406.781,802.342z
			 M179.325,802.149c-0.423,0-0.849-0.238-0.979-0.638c-0.166-0.502,0.013-1.013,0.513-1.185c0.008-0.004,0.198-0.066,0.206-0.07
			c0.517-0.157,1.051,0.126,1.211,0.634c0.159,0.509-0.124,1.051-0.634,1.211C179.54,802.134,179.433,802.149,179.325,802.149z
			 M353.567,801.814c-0.049,0-0.098-0.004-0.147-0.011c-0.521-0.079-0.977-0.573-0.907-1.096c0.072-0.521,0.46-0.89,0.975-0.843
			c0.009,0.002,0.211,0.028,0.223,0.03c0.526,0.079,0.89,0.572,0.809,1.1C354.448,801.47,354.035,801.814,353.567,801.814z
			 M412.888,801.721c-0.498,0-1-0.36-1.053-0.854c-0.055-0.526,0.228-0.988,0.753-1.049c0.009-0.002,0.207-0.023,0.217-0.024
			c0.496-0.032,1,0.341,1.049,0.875c0.047,0.53-0.343,1-0.875,1.049C412.949,801.719,412.919,801.721,412.888,801.721z
			 M418.611,801.07c-0.483,0-0.9-0.362-0.956-0.853c-0.064-0.53,0.315-1.009,0.845-1.071l0.113,0.958l0.073-0.981
			c0.515-0.081,1.011,0.313,1.075,0.841c0.064,0.53-0.313,1.011-0.841,1.075c-0.002,0-0.194,0.023-0.194,0.023
			C418.689,801.068,418.649,801.07,418.611,801.07z M347.685,800.952c-0.057,0-0.113-0.004-0.17-0.015
			c-0.521-0.093-0.966-0.6-0.879-1.122c0.083-0.521,0.487-0.896,1.004-0.813c0.008,0,0.204,0.032,0.211,0.034
			c0.524,0.092,0.875,0.594,0.783,1.119C348.551,800.622,348.144,800.952,347.685,800.952z M424.514,800.335
			c-0.483,0-0.9-0.362-0.956-0.853c-0.064-0.53,0.315-1.009,0.845-1.071l0.113,0.958l0.045-0.979c0.522-0.079,1.021,0.283,1.1,0.809
			c0.081,0.528-0.283,1.021-0.809,1.1c-0.011,0.002-0.213,0.028-0.223,0.028C424.591,800.333,424.551,800.335,424.514,800.335z
			 M184.792,800.257c-0.402,0-0.775-0.251-0.913-0.653c-0.173-0.504,0.094-1.052,0.6-1.226l0.313,0.913l-0.158-0.968
			c0.496-0.192,1.056,0.066,1.243,0.564c0.189,0.5-0.064,1.056-0.564,1.243c-0.009,0.004-0.198,0.072-0.208,0.074
			C185.001,800.24,184.895,800.257,184.792,800.257z M341.828,799.937c-0.066,0-0.13-0.006-0.196-0.021
			c-0.519-0.106-0.949-0.628-0.849-1.147c0.102-0.523,0.509-0.868,1.028-0.785c0.006,0.002,0.202,0.04,0.209,0.042
			c0.522,0.108,0.858,0.617,0.751,1.139C342.679,799.622,342.275,799.937,341.828,799.937z M430.593,799.508
			c-0.488,0-0.983-0.341-1.047-0.824c-0.07-0.524,0.198-0.994,0.722-1.071c0.008,0,0.206-0.028,0.213-0.028
			c0.521-0.079,1.013,0.313,1.075,0.841c0.064,0.53-0.313,1.011-0.841,1.075C430.674,799.507,430.633,799.508,430.593,799.508z
			 M335.996,798.792c-0.066,0-0.13-0.006-0.196-0.021c-0.002,0-0.192-0.04-0.194-0.04c-0.522-0.111-0.856-0.624-0.745-1.145
			c0.111-0.521,0.609-0.843,1.145-0.745l-0.2,0.945l0.383-0.905c0.523,0.108,0.86,0.617,0.751,1.139
			C336.847,798.477,336.443,798.792,335.996,798.792z M436.292,798.669c-0.47,0-0.883-0.345-0.954-0.824
			c-0.077-0.528,0.289-1.018,0.817-1.098l0.14,0.956l0.045-0.983c0.515-0.075,1.022,0.283,1.1,0.809
			c0.081,0.528-0.283,1.021-0.809,1.1c-0.002,0-0.194,0.028-0.196,0.03C436.386,798.665,436.339,798.669,436.292,798.669z
			 M190.537,798.177c-0.411,0-0.826-0.224-0.966-0.609c-0.179-0.498-0.015-1.013,0.479-1.198c0.009-0.004,0.198-0.074,0.207-0.076
			c0.506-0.177,1.053,0.094,1.226,0.6c0.174,0.504-0.094,1.052-0.6,1.226C190.773,798.158,190.656,798.177,190.537,798.177z
			 M442.165,797.737c-0.47,0-0.881-0.343-0.953-0.82c-0.081-0.528,0.283-1.021,0.809-1.1l0.145,0.955l0.021-0.981
			c0.511-0.106,1.026,0.256,1.119,0.783c0.092,0.524-0.258,1.026-0.783,1.119c-0.008,0.002-0.204,0.034-0.211,0.034
			C442.264,797.734,442.214,797.737,442.165,797.737z M330.183,797.543c-0.076,0-0.151-0.009-0.228-0.026
			c-0.513-0.125-0.924-0.66-0.807-1.173c0.119-0.517,0.556-0.851,1.049-0.753c0.009,0.002,0.206,0.045,0.215,0.047
			c0.517,0.126,0.836,0.649,0.711,1.168C331.014,797.247,330.618,797.543,330.183,797.543z M448.211,796.707
			c-0.472,0-0.951-0.313-1.034-0.779c-0.094-0.524,0.16-1.007,0.683-1.104c0.002,0,0.192-0.034,0.194-0.034
			c0.515-0.1,1.026,0.256,1.119,0.783c0.092,0.524-0.258,1.026-0.783,1.119C448.332,796.704,448.271,796.707,448.211,796.707z
			 M324.386,796.228c-0.068,0-0.134-0.007-0.202-0.021c-0.009-0.002-0.206-0.047-0.215-0.049c-0.517-0.126-0.836-0.649-0.711-1.168
			c0.126-0.519,0.639-0.822,1.168-0.711l-0.228,0.939l0.387-0.902c0.522,0.111,0.856,0.624,0.745,1.145
			C325.233,795.917,324.831,796.228,324.386,796.228z M196.128,796.143c-0.411,0-0.826-0.224-0.966-0.609
			c-0.179-0.498-0.015-1.013,0.479-1.198c0.009-0.004,0.198-0.074,0.207-0.076c0.504-0.175,1.053,0.094,1.226,0.6
			c0.173,0.504-0.094,1.053-0.6,1.226C196.364,796.125,196.247,796.143,196.128,796.143z M453.885,795.687
			c-0.457,0-0.864-0.326-0.949-0.792c-0.094-0.526,0.253-1.028,0.777-1.124l0.173,0.951l-0.006-0.981
			c0.519-0.121,1.034,0.226,1.139,0.751c0.108,0.522-0.228,1.032-0.751,1.139c-0.008,0.002-0.204,0.04-0.209,0.041
			C454.002,795.681,453.943,795.687,453.885,795.687z M318.593,794.878c-0.068,0-0.134-0.008-0.202-0.021
			c-0.009-0.002-0.206-0.047-0.215-0.049c-0.517-0.126-0.836-0.649-0.711-1.168c0.126-0.517,0.643-0.826,1.168-0.711l-0.228,0.939
			l0.387-0.902c0.522,0.111,0.856,0.624,0.745,1.145C319.44,794.567,319.038,794.878,318.593,794.878z M459.906,794.534
			c-0.468,0-0.941-0.304-1.032-0.762c-0.1-0.519,0.14-1.002,0.655-1.111c0.009-0.002,0.209-0.042,0.221-0.043
			c0.509-0.108,1.024,0.257,1.119,0.783c0.092,0.524-0.258,1.026-0.783,1.118C460.027,794.531,459.966,794.534,459.906,794.534z
			 M201.581,794.204c-0.402,0-0.775-0.251-0.913-0.653c-0.173-0.504,0.094-1.053,0.6-1.226l0.313,0.913l-0.158-0.968
			c0.494-0.194,1.054,0.064,1.243,0.564c0.189,0.5-0.064,1.056-0.564,1.243c-0.009,0.004-0.198,0.072-0.208,0.074
			C201.791,794.187,201.685,794.204,201.581,794.204z M312.802,793.533c-0.068,0-0.134-0.007-0.202-0.021
			c-0.009-0.002-0.206-0.047-0.215-0.049c-0.517-0.126-0.836-0.649-0.711-1.168c0.126-0.519,0.645-0.822,1.168-0.711l-0.228,0.939
			l0.387-0.902c0.522,0.111,0.856,0.624,0.745,1.145C313.649,793.222,313.247,793.533,312.802,793.533z M465.738,793.365
			c-0.468,0-0.941-0.304-1.032-0.762c-0.1-0.519,0.138-1.002,0.655-1.111c0.009-0.002,0.209-0.042,0.221-0.043
			c0.513-0.106,1.026,0.257,1.119,0.783c0.092,0.524-0.258,1.026-0.783,1.118C465.859,793.361,465.799,793.365,465.738,793.365z
			 M207.359,792.233c-0.424,0-0.853-0.24-0.983-0.641c-0.162-0.502,0.017-1.009,0.515-1.181c0.011-0.004,0.204-0.068,0.217-0.072
			c0.504-0.155,1.051,0.134,1.204,0.645c0.155,0.509-0.134,1.049-0.645,1.204C207.569,792.218,207.465,792.233,207.359,792.233z
			 M307.004,792.218c-0.075,0-0.151-0.009-0.228-0.026c-0.513-0.125-0.924-0.66-0.807-1.173c0.117-0.517,0.551-0.854,1.049-0.753
			c0.009,0.002,0.206,0.045,0.215,0.047c0.517,0.126,0.836,0.649,0.711,1.168C307.836,791.922,307.44,792.218,307.004,792.218z
			 M471.557,792.148c-0.464,0-0.932-0.298-1.026-0.751c-0.109-0.521,0.13-1.011,0.651-1.122c0.002,0,0.192-0.04,0.194-0.04
			c0.511-0.119,1.034,0.226,1.139,0.751c0.109,0.522-0.228,1.032-0.751,1.139C471.697,792.141,471.627,792.148,471.557,792.148z
			 M301.194,790.964c-0.066,0-0.13-0.006-0.196-0.021c-0.002,0-0.192-0.04-0.194-0.04c-0.522-0.111-0.856-0.624-0.745-1.145
			c0.111-0.524,0.636-0.841,1.145-0.745l-0.2,0.945l0.383-0.905c0.522,0.107,0.858,0.617,0.751,1.139
			C302.045,790.649,301.641,790.964,301.194,790.964z M477.192,790.928c-0.445,0-0.847-0.311-0.943-0.766
			c-0.111-0.521,0.223-1.034,0.745-1.145l0.2,0.945l-0.042-0.981c0.522-0.115,1.041,0.194,1.168,0.711
			c0.124,0.519-0.194,1.041-0.711,1.168c-0.009,0.002-0.206,0.045-0.215,0.047C477.326,790.92,477.26,790.928,477.192,790.928z
			 M213.037,790.456c-0.432,0-0.87-0.251-0.992-0.666c-0.151-0.505,0.042-1.011,0.545-1.169c0.009-0.002,0.202-0.06,0.209-0.062
			c0.519-0.143,1.047,0.156,1.192,0.668c0.143,0.515-0.155,1.047-0.668,1.192C213.231,790.445,213.133,790.456,213.037,790.456z
			 M295.367,789.79c-0.066,0-0.13-0.006-0.196-0.021c-0.519-0.106-0.949-0.628-0.849-1.147c0.102-0.523,0.515-0.87,1.028-0.785
			c0.006,0.002,0.202,0.04,0.209,0.042c0.522,0.108,0.86,0.617,0.751,1.139C296.218,789.475,295.814,789.79,295.367,789.79z
			 M482.998,789.636c-0.445,0-0.847-0.311-0.943-0.766c-0.111-0.521,0.223-1.034,0.745-1.145l0.2,0.945l-0.042-0.981
			c0.53-0.115,1.041,0.194,1.168,0.711c0.124,0.519-0.194,1.041-0.711,1.168c-0.009,0.002-0.206,0.045-0.215,0.047
			C483.132,789.628,483.066,789.636,482.998,789.636z M218.769,788.859c-0.445,0-0.896-0.27-1.007-0.7
			c-0.134-0.511,0.077-1.011,0.587-1.151c0.008-0.002,0.198-0.053,0.206-0.055c0.513-0.13,1.041,0.185,1.171,0.703
			c0.128,0.517-0.187,1.041-0.704,1.171C218.939,788.849,218.854,788.859,218.769,788.859z M289.52,788.711
			c-0.057,0-0.113-0.004-0.17-0.015c-0.002,0-0.192-0.034-0.194-0.034c-0.524-0.096-0.871-0.598-0.777-1.124
			c0.096-0.526,0.605-0.866,1.124-0.777l-0.173,0.951l0.357-0.917c0.524,0.092,0.875,0.594,0.783,1.119
			C290.386,788.381,289.978,788.711,289.52,788.711z M488.974,788.281c-0.457,0-0.919-0.289-1.021-0.732
			c-0.117-0.515,0.107-1.007,0.621-1.132c0.009-0.002,0.206-0.047,0.215-0.049c0.515-0.094,1.036,0.221,1.145,0.745
			c0.111,0.521-0.223,1.034-0.745,1.145C489.119,788.274,489.045,788.281,488.974,788.281z M283.657,787.736
			c-0.058,0-0.117-0.006-0.175-0.015c-0.517-0.094-0.96-0.602-0.875-1.122c0.087-0.519,0.49-0.885,0.998-0.815
			c0.011,0.002,0.213,0.034,0.225,0.036c0.524,0.096,0.871,0.598,0.777,1.124C284.521,787.41,284.114,787.736,283.657,787.736z
			 M224.387,787.521c-0.447,0-0.849-0.311-0.945-0.766c-0.111-0.521,0.223-1.034,0.745-1.145l0.2,0.945l-0.041-0.981
			c0.541-0.117,1.043,0.196,1.168,0.711c0.125,0.519-0.194,1.041-0.711,1.168c-0.009,0.002-0.206,0.045-0.215,0.047
			C224.519,787.514,224.453,787.521,224.387,787.521z M494.772,786.959c-0.457,0-0.919-0.289-1.021-0.732
			c-0.117-0.515,0.108-1.007,0.621-1.132c0.009-0.002,0.206-0.047,0.215-0.049c0.521-0.104,1.035,0.223,1.145,0.745
			c0.111,0.521-0.223,1.034-0.745,1.145C494.917,786.952,494.844,786.959,494.772,786.959z M277.772,786.869
			c-0.04,0-0.079-0.002-0.119-0.008c-0.008,0-0.206-0.028-0.213-0.028c-0.528-0.079-0.894-0.57-0.817-1.096
			c0.079-0.528,0.585-0.872,1.096-0.817l-0.14,0.956l0.307-0.932c0.528,0.064,0.905,0.545,0.841,1.075
			C278.67,786.508,278.253,786.869,277.772,786.869z M230.4,786.357c-0.477,0-0.96-0.323-1.037-0.792
			c-0.087-0.521,0.168-0.998,0.685-1.092c0.011-0.002,0.211-0.036,0.223-0.038c0.524-0.059,1.017,0.287,1.096,0.817
			c0.077,0.526-0.289,1.017-0.817,1.096C230.5,786.354,230.451,786.357,230.4,786.357z M271.876,786.116
			c-0.04,0-0.079-0.002-0.119-0.008c-0.528-0.064-1-0.555-0.938-1.085c0.064-0.528,0.451-0.905,0.977-0.856
			c0,0.002,0.192,0.024,0.194,0.024c0.528,0.064,0.905,0.545,0.841,1.075C272.774,785.756,272.357,786.116,271.876,786.116z
			 M500.397,785.678c-0.445,0-0.847-0.311-0.943-0.766c-0.111-0.521,0.223-1.034,0.745-1.145l0.2,0.945l-0.041-0.981
			c0.524-0.111,1.043,0.194,1.168,0.711c0.124,0.519-0.194,1.041-0.711,1.168c-0.009,0.002-0.206,0.045-0.215,0.047
			C500.531,785.671,500.465,785.678,500.397,785.678z M236.1,785.531c-0.483,0-0.9-0.362-0.956-0.853
			c-0.064-0.53,0.315-1.009,0.845-1.071l0.113,0.958l0.074-0.981c0.515-0.074,1.011,0.311,1.075,0.841
			c0.064,0.53-0.313,1.011-0.841,1.075c-0.002,0-0.194,0.023-0.194,0.023C236.178,785.529,236.138,785.531,236.1,785.531z
			 M265.966,785.469c-0.04,0-0.079-0.002-0.119-0.007c-0.523-0.062-0.994-0.543-0.939-1.068c0.057-0.523,0.404-0.907,0.951-0.872
			c0.011,0,0.211,0.021,0.223,0.023c0.528,0.064,0.905,0.545,0.841,1.075C266.864,785.109,266.447,785.469,265.966,785.469z
			 M242.018,784.956c-0.507,0-0.934-0.396-0.964-0.909c-0.032-0.532,0.375-0.99,0.907-1.021l0.057,0.964l0.104-0.975
			c0.487-0.04,1.002,0.343,1.049,0.875c0.049,0.53-0.343,1-0.875,1.049c-0.009,0-0.209,0.015-0.221,0.015
			C242.055,784.956,242.037,784.956,242.018,784.956z M260.037,784.948c-0.03,0-0.06-0.002-0.089-0.004
			c-0.526-0.047-1.011-0.515-0.971-1.041c0.04-0.524,0.417-0.945,0.924-0.898c0.009,0,0.211,0.015,0.221,0.015
			c0.532,0.049,0.922,0.519,0.875,1.049C260.952,784.571,260.53,784.948,260.037,784.948z M254.094,784.669
			c-0.009,0-0.209-0.004-0.219-0.004c-0.534-0.017-0.953-0.46-0.938-0.994c0.015-0.534,0.449-0.943,0.994-0.938l-0.028,0.966
			l0.19-0.962c0.534,0,0.966,0.432,0.966,0.966C255.059,784.237,254.627,784.669,254.094,784.669z M248.146,784.667
			c-0.528,0-1.055-0.422-1.062-0.949c-0.008-0.528,0.313-0.964,0.841-0.979c0.009,0,0.211-0.004,0.221-0.004
			c0.534,0,0.966,0.432,0.966,0.966C249.112,784.235,248.68,784.667,248.146,784.667z M506.199,784.377
			c-0.445,0-0.847-0.311-0.943-0.766c-0.111-0.521,0.222-1.034,0.745-1.145l0.2,0.945l-0.042-0.981
			c0.524-0.113,1.043,0.194,1.168,0.711c0.125,0.519-0.194,1.041-0.711,1.168c-0.01,0.002-0.206,0.045-0.215,0.047
			C506.333,784.369,506.267,784.377,506.199,784.377z M512.188,783.075c-0.464,0-0.932-0.298-1.026-0.751
			c-0.109-0.521,0.13-1.011,0.651-1.122c0.002,0,0.192-0.04,0.194-0.04c0.517-0.121,1.034,0.226,1.139,0.751
			c0.107,0.522-0.228,1.032-0.751,1.139C512.328,783.068,512.258,783.075,512.188,783.075z M518.011,781.864
			c-0.468,0-0.941-0.304-1.032-0.762c-0.1-0.519,0.138-1.002,0.654-1.111c0.01-0.002,0.209-0.042,0.221-0.043
			c0.509-0.106,1.026,0.256,1.119,0.783c0.092,0.524-0.258,1.026-0.783,1.119C518.132,781.86,518.071,781.864,518.011,781.864z
			 M523.675,780.765c-0.456,0-0.864-0.326-0.949-0.792c-0.094-0.526,0.253-1.028,0.777-1.124l0.173,0.951l-0.006-0.981
			c0.521-0.113,1.034,0.226,1.139,0.751c0.107,0.522-0.228,1.032-0.751,1.139c-0.008,0.002-0.204,0.04-0.209,0.042
			C523.792,780.759,523.734,780.765,523.675,780.765z M529.715,779.688c-0.477,0-0.96-0.323-1.038-0.792
			c-0.087-0.521,0.168-0.998,0.685-1.092c0.011-0.002,0.211-0.036,0.223-0.038c0.521-0.066,1.017,0.289,1.096,0.817
			c0.077,0.526-0.289,1.017-0.815,1.096C529.815,779.684,529.766,779.688,529.715,779.688z M535.587,778.759
			c-0.483,0-0.971-0.332-1.041-0.809c-0.079-0.526,0.189-1.003,0.715-1.083c0.002,0,0.192-0.028,0.194-0.03
			c0.523-0.058,1.017,0.287,1.096,0.817c0.077,0.526-0.289,1.017-0.817,1.096C535.685,778.756,535.636,778.759,535.587,778.759z
			 M541.288,777.982c-0.483,0-0.9-0.362-0.956-0.853c-0.064-0.53,0.315-1.009,0.845-1.073l0.113,0.96l0.045-0.979
			c0.522-0.072,1.021,0.283,1.1,0.809c0.081,0.528-0.283,1.02-0.809,1.1c-0.011,0.002-0.213,0.028-0.223,0.028
			C541.365,777.98,541.326,777.982,541.288,777.982z M547.196,777.318c-0.494,0-0.917-0.379-0.96-0.881
			c-0.047-0.532,0.345-1,0.877-1.047l0.085,0.962l0.073-0.977c0.522-0.083,1.013,0.311,1.075,0.841
			c0.064,0.53-0.313,1.011-0.841,1.075c-0.011,0.002-0.211,0.023-0.223,0.023C547.254,777.316,547.224,777.318,547.196,777.318z
			 M553.12,776.803c-0.507,0-0.934-0.396-0.964-0.909c-0.032-0.532,0.375-0.99,0.907-1.021l0.057,0.964l0.104-0.975
			c0.5-0.034,1,0.341,1.049,0.875c0.049,0.53-0.343,1-0.875,1.049c-0.01,0-0.209,0.015-0.221,0.015
			C553.158,776.803,553.139,776.803,553.12,776.803z"/>
		<path style="fill:#F7ECEB;" d="M559.604,776.426l-0.149-0.96l-0.006-0.966c0.534-0.03,1.002,0.391,1.028,0.919
			C560.501,775.945,560.13,776.394,559.604,776.426z"/>
	</g>
	<g>
		<g>
			<path style="fill:#F7ECEB;" d="M19.505,768.839c0,2.051-1.663,3.714-3.714,3.714c-2.051,0-3.714-1.663-3.714-3.714
				c0-2.051,1.663-3.714,3.714-3.714C17.843,765.126,19.505,766.788,19.505,768.839z"/>
			<path style="fill:#F7ECEB;" d="M15.792,773.519c-2.58,0-4.68-2.099-4.68-4.68c0-2.581,2.099-4.68,4.68-4.68
				c2.581,0,4.68,2.099,4.68,4.68C20.472,771.42,18.373,773.519,15.792,773.519z M15.792,766.091c-1.515,0-2.748,1.234-2.748,2.748
				c0,1.515,1.234,2.748,2.748,2.748s2.748-1.234,2.748-2.748C18.54,767.325,17.307,766.091,15.792,766.091z"/>
		</g>
		<g>
			<path style="fill:#F7ECEB;" d="M230.497,805.665c0,2.051-1.663,3.714-3.714,3.714c-2.051,0-3.714-1.663-3.714-3.714
				c0-2.051,1.663-3.714,3.714-3.714C228.835,801.951,230.497,803.614,230.497,805.665z"/>
			<path style="fill:#F7ECEB;" d="M226.784,810.343c-2.58,0-4.68-2.099-4.68-4.678c0-2.581,2.1-4.68,4.68-4.68s4.68,2.099,4.68,4.68
				C231.464,808.244,229.364,810.343,226.784,810.343z M226.784,802.917c-1.515,0-2.748,1.234-2.748,2.748s1.234,2.746,2.748,2.746
				c1.515,0,2.748-1.232,2.748-2.746S228.299,802.917,226.784,802.917z"/>
		</g>
		<g>
			<path style="fill:#F7ECEB;" d="M486.257,801.951c0,2.051-1.663,3.714-3.714,3.714c-2.051,0-3.714-1.663-3.714-3.714
				c0-2.051,1.663-3.714,3.714-3.714C484.594,798.237,486.257,799.9,486.257,801.951z"/>
			<path style="fill:#F7ECEB;" d="M482.543,806.631c-2.58,0-4.68-2.099-4.68-4.68c0-2.581,2.099-4.68,4.68-4.68
				c2.581,0,4.68,2.099,4.68,4.68C487.223,804.532,485.124,806.631,482.543,806.631z M482.543,799.203
				c-1.515,0-2.748,1.234-2.748,2.748s1.234,2.748,2.748,2.748c1.515,0,2.748-1.234,2.748-2.748S484.058,799.203,482.543,799.203z"
				/>
		</g>
		<g>
			<path style="fill:#F7ECEB;" d="M18.226,809.973c0,1.344-1.09,2.434-2.434,2.434c-1.344,0-2.434-1.09-2.434-2.434
				c0-1.344,1.09-2.434,2.434-2.434C17.136,807.539,18.226,808.629,18.226,809.973z"/>
			<path style="fill:#F7ECEB;" d="M15.792,813.373c-1.875,0-3.401-1.524-3.401-3.399c0-1.875,1.526-3.401,3.401-3.401
				c1.875,0,3.399,1.526,3.399,3.401C19.191,811.849,17.667,813.373,15.792,813.373z M15.792,808.504
				c-0.811,0-1.469,0.658-1.469,1.469c0,0.809,0.658,1.468,1.469,1.468c0.809,0,1.468-0.658,1.468-1.468
				C17.26,809.162,16.601,808.504,15.792,808.504z"/>
		</g>
		<g>
			<path style="fill:#F7ECEB;" d="M501.357,793.175c0,1.344-1.09,2.434-2.434,2.434c-1.344,0-2.434-1.09-2.434-2.434
				s1.09-2.434,2.434-2.434C500.267,790.741,501.357,791.831,501.357,793.175z"/>
			<path style="fill:#F7ECEB;" d="M498.924,796.575c-1.875,0-3.401-1.526-3.401-3.401s1.526-3.399,3.401-3.399
				c1.875,0,3.399,1.524,3.399,3.399S500.799,796.575,498.924,796.575z M498.924,791.707c-0.811,0-1.469,0.658-1.469,1.467
				c0,0.811,0.658,1.469,1.469,1.469c0.809,0,1.467-0.658,1.467-1.469C500.391,792.365,499.733,791.707,498.924,791.707z"/>
		</g>
		<g>
			<path style="fill:#F7ECEB;" d="M560.919,785.862c0,1.344-1.09,2.434-2.434,2.434c-1.344,0-2.434-1.09-2.434-2.434
				c0-1.344,1.09-2.434,2.434-2.434C559.83,783.428,560.919,784.518,560.919,785.862z"/>
			<path style="fill:#F7ECEB;" d="M558.485,789.262c-1.875,0-3.399-1.526-3.399-3.401s1.524-3.399,3.399-3.399
				c1.875,0,3.401,1.524,3.401,3.399S560.36,789.262,558.485,789.262z M558.485,784.394c-0.809,0-1.468,0.658-1.468,1.468
				c0,0.811,0.658,1.469,1.468,1.469c0.811,0,1.469-0.658,1.469-1.469C559.954,785.052,559.296,784.394,558.485,784.394z"/>
		</g>
		<g>
			<path style="fill:#F7ECEB;" d="M26.448,782.685c-0.247,0-0.494-0.094-0.683-0.283c-0.377-0.377-0.377-0.989,0-1.366l5.182-5.183
				c0.377-0.377,0.988-0.377,1.366,0c0.377,0.377,0.377,0.988,0,1.366l-5.182,5.184C26.942,782.591,26.695,782.685,26.448,782.685z"
				/>
			<path style="fill:#F7ECEB;" d="M31.629,782.685c-0.247,0-0.494-0.094-0.683-0.283l-5.182-5.184c-0.377-0.377-0.377-0.988,0-1.366
				c0.377-0.377,0.988-0.377,1.366,0l5.182,5.183c0.377,0.377,0.377,0.988,0,1.366C32.124,782.591,31.876,782.685,31.629,782.685z"
				/>
		</g>
		<g>
			<path style="fill:#F7ECEB;" d="M138.378,789.741c-0.247,0-0.494-0.094-0.683-0.283c-0.377-0.377-0.377-0.988,0-1.366l3.897-3.897
				c0.377-0.377,0.988-0.377,1.366,0c0.377,0.377,0.377,0.988,0,1.366l-3.897,3.897
				C138.872,789.647,138.625,789.741,138.378,789.741z"/>
			<path style="fill:#F7ECEB;" d="M142.275,789.741c-0.247,0-0.494-0.094-0.683-0.283l-3.897-3.897
				c-0.377-0.377-0.377-0.988,0-1.366c0.377-0.377,0.988-0.377,1.366,0l3.897,3.897c0.377,0.377,0.377,0.988,0,1.366
				C142.769,789.647,142.522,789.741,142.275,789.741z"/>
		</g>
		<g>
			<path style="fill:#F7ECEB;" d="M542.682,802.298c-0.247,0-0.494-0.094-0.683-0.283c-0.377-0.377-0.377-0.988,0-1.366l6.189-6.191
				c0.377-0.377,0.989-0.377,1.366,0c0.377,0.377,0.377,0.988,0,1.366l-6.189,6.191
				C543.176,802.204,542.929,802.298,542.682,802.298z"/>
			<path style="fill:#F7ECEB;" d="M548.871,802.298c-0.247,0-0.494-0.094-0.683-0.283l-6.189-6.191
				c-0.377-0.377-0.377-0.988,0-1.366c0.377-0.377,0.988-0.377,1.366,0l6.189,6.191c0.377,0.377,0.377,0.988,0,1.366
				C549.365,802.204,549.118,802.298,548.871,802.298z"/>
		</g>
		<g>
			<path style="fill:#F7ECEB;" d="M344.682,779.45c-0.247,0-0.494-0.094-0.683-0.283c-0.377-0.377-0.377-0.988,0-1.366l3.897-3.895
				c0.377-0.377,0.988-0.377,1.366,0c0.377,0.377,0.377,0.988,0,1.366l-3.897,3.895C345.177,779.356,344.93,779.45,344.682,779.45z"
				/>
			<path style="fill:#F7ECEB;" d="M348.579,779.45c-0.247,0-0.494-0.094-0.683-0.283L344,775.272c-0.377-0.377-0.377-0.988,0-1.366
				c0.377-0.377,0.988-0.377,1.366,0l3.897,3.895c0.377,0.377,0.377,0.988,0,1.366C349.074,779.356,348.827,779.45,348.579,779.45z"
				/>
		</g>
	</g>
</g>
<g>
	<g>
		<path style="fill:#F7ECEB;" d="M478.829,196.888c0,2.051-1.663,3.714-3.714,3.714c-2.051,0-3.714-1.663-3.714-3.714
			c0-2.051,1.663-3.714,3.714-3.714C477.167,193.174,478.829,194.837,478.829,196.888z"/>
		<path style="fill:#F7ECEB;" d="M475.115,201.567c-2.579,0-4.678-2.099-4.678-4.68c0-2.581,2.099-4.68,4.678-4.68
			c2.58,0,4.68,2.099,4.68,4.68C479.795,199.468,477.695,201.567,475.115,201.567z M475.115,194.139
			c-1.515,0-2.746,1.233-2.746,2.748c0,1.516,1.232,2.748,2.746,2.748c1.515,0,2.748-1.233,2.748-2.748
			C477.863,195.372,476.63,194.139,475.115,194.139z"/>
	</g>
	<g>
		<path style="fill:#F7ECEB;" d="M15.792,253.533c0,2.051-1.663,3.714-3.714,3.714s-3.714-1.663-3.714-3.714
			c0-2.051,1.663-3.714,3.714-3.714S15.792,251.482,15.792,253.533z"/>
		<path style="fill:#F7ECEB;" d="M12.078,258.213c-2.58,0-4.68-2.099-4.68-4.68c0-2.581,2.099-4.68,4.68-4.68
			c2.58,0,4.68,2.099,4.68,4.68C16.758,256.114,14.658,258.213,12.078,258.213z M12.078,250.785c-1.515,0-2.748,1.233-2.748,2.748
			c0,1.516,1.234,2.748,2.748,2.748s2.748-1.233,2.748-2.748C14.826,252.018,13.593,250.785,12.078,250.785z"/>
	</g>
	<g>
		<circle style="fill:#F7ECEB;" cx="18.226" cy="200.601" r="2.434"/>
		<path style="fill:#F7ECEB;" d="M18.225,204.001c-1.875,0-3.399-1.525-3.399-3.399c0-1.875,1.524-3.4,3.399-3.4
			c1.875,0,3.399,1.525,3.399,3.4C21.625,202.476,20.1,204.001,18.225,204.001z M18.225,199.133c-0.809,0-1.468,0.658-1.468,1.469
			c0,0.809,0.658,1.467,1.468,1.467c0.809,0,1.468-0.658,1.468-1.467C19.693,199.792,19.035,199.133,18.225,199.133z"/>
	</g>
	<g>
		<path style="fill:#F7ECEB;" d="M556.603,147.221c0,1.344-1.09,2.434-2.434,2.434c-1.344,0-2.434-1.09-2.434-2.434
			c0-1.344,1.09-2.434,2.434-2.434C555.513,144.788,556.603,145.877,556.603,147.221z"/>
		<path style="fill:#F7ECEB;" d="M554.169,150.621c-1.875,0-3.401-1.525-3.401-3.399c0-1.875,1.526-3.4,3.401-3.4
			c1.875,0,3.399,1.525,3.399,3.4C557.568,149.096,556.044,150.621,554.169,150.621z M554.169,145.753
			c-0.811,0-1.469,0.658-1.469,1.469c0,0.809,0.658,1.467,1.469,1.467c0.809,0,1.467-0.658,1.467-1.467
			C555.637,146.412,554.978,145.753,554.169,145.753z"/>
	</g>
	<g>
		<path style="fill:#F7ECEB;" d="M400.591,160.479c0,1.344-1.09,2.434-2.434,2.434c-1.344,0-2.434-1.09-2.434-2.434
			c0-1.344,1.09-2.434,2.434-2.434C399.501,158.045,400.591,159.135,400.591,160.479z"/>
		<path style="fill:#F7ECEB;" d="M398.157,163.879c-1.875,0-3.399-1.525-3.399-3.399c0-1.875,1.524-3.4,3.399-3.4
			c1.875,0,3.399,1.525,3.399,3.4C401.556,162.354,400.032,163.879,398.157,163.879z M398.157,159.011
			c-0.809,0-1.467,0.658-1.467,1.469c0,0.809,0.658,1.467,1.467,1.467s1.468-0.658,1.468-1.467
			C399.624,159.669,398.966,159.011,398.157,159.011z"/>
	</g>
	<g>
		<path style="fill:#F7ECEB;" d="M563.33,203.035c0,0.951-0.771,1.721-1.721,1.721c-0.951,0-1.721-0.771-1.721-1.721
			s0.771-1.721,1.721-1.721C562.56,201.314,563.33,202.085,563.33,203.035z"/>
		<path style="fill:#F7ECEB;" d="M561.609,205.722c-1.481,0-2.686-1.205-2.686-2.687c0-1.481,1.205-2.686,2.686-2.686
			c1.483,0,2.688,1.205,2.688,2.686C564.297,204.517,563.091,205.722,561.609,205.722z M561.609,202.281
			c-0.417,0-0.755,0.339-0.755,0.755c0,0.417,0.338,0.755,0.755,0.755c0.417,0,0.756-0.339,0.756-0.755
			C562.365,202.619,562.026,202.281,561.609,202.281z"/>
	</g>
	<g>
		<path style="fill:#F7ECEB;" d="M439.881,164.036c-0.247,0-0.494-0.094-0.683-0.283c-0.377-0.377-0.377-0.988,0-1.366l5.182-5.183
			c0.377-0.377,0.988-0.377,1.366,0c0.377,0.377,0.377,0.988,0,1.366l-5.182,5.182C440.375,163.942,440.128,164.036,439.881,164.036
			z"/>
		<path style="fill:#F7ECEB;" d="M445.063,164.036c-0.247,0-0.494-0.094-0.683-0.283l-5.182-5.182c-0.377-0.377-0.377-0.988,0-1.366
			c0.377-0.377,0.988-0.377,1.366,0l5.182,5.183c0.377,0.377,0.377,0.988,0,1.366C445.557,163.942,445.31,164.036,445.063,164.036z"
			/>
	</g>
	<g>
		<path style="fill:#F7ECEB;" d="M572.115,170.068c-0.247,0-0.494-0.094-0.683-0.283c-0.377-0.377-0.377-0.988,0-1.366l6.189-6.19
			c0.377-0.377,0.988-0.377,1.366,0c0.377,0.377,0.377,0.988,0,1.366l-6.189,6.19C572.609,169.974,572.362,170.068,572.115,170.068z
			"/>
		<path style="fill:#F7ECEB;" d="M578.304,170.068c-0.247,0-0.494-0.094-0.683-0.283l-6.189-6.19c-0.377-0.377-0.377-0.988,0-1.366
			c0.377-0.377,0.988-0.377,1.366,0l6.189,6.19c0.377,0.377,0.377,0.988,0,1.366C578.798,169.974,578.551,170.068,578.304,170.068z"
			/>
	</g>
	<g>
		<path style="fill:#F7ECEB;" d="M404.657,179.115c-0.247,0-0.494-0.094-0.683-0.283c-0.377-0.377-0.377-0.988,0-1.366l6.191-6.189
			c0.377-0.377,0.988-0.377,1.366,0c0.377,0.377,0.377,0.988,0,1.366l-6.191,6.189C405.151,179.021,404.904,179.115,404.657,179.115
			z"/>
		<path style="fill:#F7ECEB;" d="M410.848,179.115c-0.247,0-0.494-0.094-0.683-0.283l-6.191-6.189c-0.377-0.377-0.377-0.988,0-1.366
			c0.377-0.377,0.988-0.377,1.366,0l6.191,6.189c0.377,0.377,0.377,0.988,0,1.366C411.342,179.021,411.095,179.115,410.848,179.115z
			"/>
	</g>
	<g>
		<path style="fill:#F7ECEB;" d="M31.261,227.507c-0.247,0-0.494-0.094-0.683-0.283c-0.377-0.377-0.377-0.988,0-1.366l6.189-6.189
			c0.377-0.377,0.988-0.377,1.366,0c0.377,0.377,0.377,0.988,0,1.366l-6.189,6.189C31.756,227.412,31.509,227.507,31.261,227.507z"
			/>
		<path style="fill:#F7ECEB;" d="M37.45,227.507c-0.247,0-0.494-0.094-0.683-0.283l-6.189-6.189c-0.377-0.377-0.377-0.988,0-1.366
			c0.377-0.377,0.988-0.377,1.366,0l6.189,6.189c0.377,0.377,0.377,0.988,0,1.366C37.945,227.412,37.697,227.507,37.45,227.507z"/>
	</g>
	<g>
		<polygon style="fill:#EAD9D8;" points="554.749,188.047 554.169,192.849 552.969,189.231 493.449,166.408 492.385,155.684 		"/>
		<polygon style="fill:#EAD9D8;" points="554.169,192.849 494.603,190.111 491.422,184.158 549.526,191.494 552.969,189.231 		"/>
		<polygon style="fill:#F7ECEB;" points="482.286,162.012 454.458,179.944 549.526,191.494 552.969,189.231 		"/>
		<polygon style="fill:#F7ECEB;" points="554.749,188.047 492.385,155.684 511.734,143.968 557.087,186.493 		"/>
	</g>
	<path style="fill:#F7ECEB;" d="M127.181,281.39c-0.524,0-1-0.415-1.013-0.939c-0.015-0.532,0.356-0.973,0.888-0.989
		c0.473-0.035,1.073,0.402,1.09,0.935c0.015,0.534-0.307,0.976-0.841,0.992C127.298,281.387,127.19,281.39,127.181,281.39z
		 M121.29,281.39c-0.006,0-0.111,0-0.117-0.002c-0.532-0.012-1.004-0.453-0.992-0.985c0.009-0.527,0.392-0.949,0.917-0.949
		c0.004,0,0.009,0,0.015,0c0.532,0.008,1.054,0.449,1.047,0.982C122.152,280.965,121.814,281.39,121.29,281.39z M133.064,281.132
		c-0.509,0-0.934-0.396-0.964-0.909c-0.032-0.532,0.375-0.989,0.907-1.021c0.534-0.019,1.081,0.366,1.117,0.893
		c0.034,0.53-0.268,0.982-0.796,1.02c-0.006,0.001-0.202,0.014-0.207,0.014C133.102,281.131,133.083,281.132,133.064,281.132z
		 M115.309,281.13c-0.019,0-0.038-0.001-0.057-0.002c-0.002,0-0.102-0.007-0.104-0.007c-0.53-0.035-0.981-0.496-0.949-1.027
		c0.034-0.53,0.477-0.925,0.973-0.906c0.532,0.031,1.036,0.494,1.004,1.027C116.146,280.728,115.81,281.13,115.309,281.13z
		 M109.34,280.609c-0.032,0-0.064-0.002-0.096-0.005l-0.207-0.023c-0.53-0.062-0.909-0.542-0.845-1.072
		c0.062-0.53,0.536-0.908,1.071-0.846c0.53,0.055,1.005,0.538,0.951,1.069C110.163,280.23,109.821,280.609,109.34,280.609z
		 M139.021,280.586c-0.483,0-0.9-0.361-0.958-0.853c-0.062-0.53,0.317-1.01,0.847-1.072l0.192-0.023
		c0.521-0.066,1.011,0.316,1.073,0.846c0.062,0.53-0.317,1.01-0.847,1.072l-0.192,0.023
		C139.098,280.584,139.059,280.586,139.021,280.586z M103.4,279.835c-0.043,0-0.089-0.004-0.136-0.01
		c-0.006-0.001-0.202-0.031-0.207-0.032c-0.526-0.088-0.883-0.586-0.794-1.111c0.087-0.526,0.598-0.886,1.111-0.794
		c0.522,0.087,0.973,0.593,0.89,1.117C104.191,279.481,103.857,279.835,103.4,279.835z M144.95,279.738
		c-0.456,0-0.864-0.326-0.949-0.793c-0.094-0.524,0.253-1.027,0.777-1.123l0.209-0.035c0.519-0.087,1.022,0.272,1.107,0.799
		c0.087,0.527-0.272,1.023-0.798,1.108l-0.172,0.028C145.067,279.733,145.008,279.738,144.95,279.738z M97.508,278.81
		c-0.062,0-0.126-0.006-0.189-0.018l0.187-0.948l-0.37,0.912c-0.524-0.1-0.868-0.606-0.768-1.13c0.102-0.525,0.617-0.865,1.13-0.768
		c0.002,0.001,0.192,0.038,0.194,0.038c0.523,0.104,0.864,0.611,0.76,1.135C98.362,278.491,97.959,278.81,97.508,278.81z
		 M150.827,278.591c-0.445,0-0.843-0.307-0.943-0.757c-0.115-0.521,0.215-1.036,0.736-1.152c0.53-0.12,1.128,0.189,1.247,0.707
		c0.119,0.52-0.117,1.017-0.637,1.135l-0.194,0.043C150.965,278.583,150.895,278.591,150.827,278.591z M91.655,277.54
		c-0.075,0-0.151-0.009-0.228-0.027l-0.181-0.043c-0.521-0.123-0.841-0.642-0.719-1.162c0.121-0.517,0.643-0.838,1.16-0.719
		l0.196,0.047c0.517,0.125,0.836,0.648,0.711,1.166C92.487,277.244,92.09,277.54,91.655,277.54z M156.633,277.146
		c-0.423,0-0.809-0.278-0.93-0.705c-0.143-0.513,0.155-1.047,0.668-1.191c0.004,0,0.191-0.052,0.192-0.053
		c0.517-0.138,1.047,0.163,1.187,0.678c0.139,0.514-0.162,1.045-0.677,1.186l-0.255-0.932l0.077,0.981
		C156.807,277.135,156.72,277.146,156.633,277.146z M85.862,276.028c-0.089,0-0.177-0.012-0.268-0.038l-0.174-0.049
		c-0.515-0.141-0.817-0.672-0.677-1.186c0.142-0.514,0.666-0.819,1.187-0.678l0.2,0.057c0.511,0.147,0.807,0.683,0.66,1.195
		C86.667,275.753,86.283,276.028,85.862,276.028z M162.362,275.414c-0.404,0-0.781-0.256-0.917-0.66
		c-0.168-0.507,0.106-1.053,0.611-1.221c0.002-0.001,0.187-0.061,0.187-0.062c0.504-0.168,1.052,0.108,1.218,0.617
		c0.168,0.507-0.109,1.053-0.615,1.219l-0.302-0.918l0.123,0.976C162.566,275.397,162.464,275.414,162.362,275.414z M80.109,274.28
		c-0.089,0-0.181-0.014-0.275-0.045c0-0.001-0.185-0.061-0.187-0.062c-0.506-0.168-0.779-0.715-0.611-1.221
		c0.17-0.506,0.721-0.774,1.222-0.61c0.506,0.168,0.87,0.744,0.704,1.25C80.824,274.002,80.499,274.28,80.109,274.28z
		 M167.996,273.4c-0.387,0-0.753-0.234-0.9-0.617c-0.194-0.498,0.053-1.057,0.551-1.25c0.494-0.193,1.147,0.019,1.339,0.516
		c0.192,0.496,0.036,1.021-0.46,1.215l-0.181,0.071C168.23,273.379,168.113,273.4,167.996,273.4z M74.484,272.303
		c-0.113,0-0.228-0.02-0.34-0.061l-0.181-0.068c-0.5-0.188-0.753-0.744-0.564-1.244c0.187-0.501,0.747-0.749,1.243-0.565
		l0.181,0.068c0.5,0.188,0.753,0.744,0.564,1.244C75.242,272.064,74.874,272.303,74.484,272.303z M173.529,271.116
		c-0.375,0-0.734-0.222-0.89-0.59c-0.208-0.491,0.023-1.058,0.515-1.265c0.487-0.218,1.136-0.039,1.354,0.448
		c0.221,0.486,0.081,1.024-0.404,1.243l-0.2,0.088C173.781,271.091,173.655,271.116,173.529,271.116z M68.88,270.093
		c-0.109,0-0.223-0.023-0.336-0.071l-0.179-0.074c-0.492-0.207-0.722-0.774-0.515-1.266c0.209-0.492,0.779-0.72,1.266-0.514
		c0.491,0.206,0.809,0.81,0.604,1.301C69.561,269.847,69.242,270.093,68.88,270.093z M178.948,268.575
		c-0.349,0-0.687-0.19-0.858-0.522c-0.245-0.474-0.058-1.056,0.415-1.302l0.196-0.097c0.483-0.23,1.056-0.031,1.29,0.449
		c0.232,0.48,0.032,1.057-0.449,1.29l-0.151,0.074C179.25,268.54,179.099,268.575,178.948,268.575z M63.445,267.67
		c-0.138,0-0.277-0.029-0.409-0.09l-0.175-0.082c-0.483-0.226-0.692-0.802-0.466-1.285c0.226-0.485,0.807-0.688,1.285-0.466
		l0.175,0.082c0.483,0.226,0.692,0.802,0.466,1.285C64.156,267.465,63.807,267.67,63.445,267.67z M184.248,265.792
		c-0.34,0-0.67-0.18-0.847-0.501c-0.256-0.467-0.087-1.055,0.381-1.311l0.17-0.093c0.47-0.254,1.052-0.09,1.313,0.381
		c0.257,0.467,0.087,1.054-0.381,1.311l-0.17,0.093C184.565,265.753,184.407,265.792,184.248,265.792z M58.073,265.026
		c-0.151,0-0.302-0.035-0.443-0.108l-0.172-0.089c-0.473-0.244-0.66-0.827-0.415-1.302c0.245-0.474,0.83-0.657,1.302-0.415
		l0.172,0.089c0.473,0.245,0.66,0.828,0.415,1.302C58.76,264.835,58.422,265.026,58.073,265.026z M189.424,262.782
		c-0.332,0-0.654-0.172-0.834-0.479c-0.27-0.461-0.113-1.052,0.347-1.32c0.456-0.282,1.12-0.185,1.402,0.267
		c0.281,0.454,0.213,1.005-0.24,1.286l-0.189,0.114C189.758,262.74,189.59,262.782,189.424,262.782z M52.754,262.159
		c-0.14,0-0.281-0.037-0.419-0.115c-0.002,0-0.17-0.096-0.17-0.096c-0.464-0.264-0.626-0.853-0.362-1.317
		c0.262-0.466,0.853-0.626,1.317-0.362c0.464,0.263,0.709,0.901,0.447,1.364C53.382,261.958,53.078,262.159,52.754,262.159z
		 M194.476,259.562c-0.313,0-0.622-0.154-0.807-0.437c-0.292-0.446-0.168-1.045,0.277-1.337c0.443-0.287,1.119-0.223,1.413,0.219
		c0.294,0.441,0.258,0.984-0.179,1.281c-0.006,0.003-0.17,0.113-0.174,0.117C194.842,259.511,194.659,259.562,194.476,259.562z
		 M47.604,259.09c-0.147,0-0.3-0.042-0.445-0.132l-0.164-0.102c-0.453-0.281-0.592-0.877-0.311-1.33
		c0.283-0.453,0.881-0.588,1.33-0.311c0.453,0.281,0.675,0.928,0.394,1.381C48.215,258.903,47.917,259.09,47.604,259.09z
		 M199.393,256.145c-0.294,0-0.587-0.135-0.775-0.39c-0.319-0.429-0.228-1.034,0.2-1.352l0.17-0.123
		c0.438-0.309,1.037-0.209,1.349,0.225c0.309,0.434,0.209,1.037-0.225,1.347l-0.143,0.104
		C199.795,256.084,199.593,256.145,199.393,256.145z M42.651,255.834c-0.187,0-0.375-0.054-0.541-0.167l-0.158-0.106
		c-0.441-0.298-0.56-0.898-0.262-1.34c0.3-0.444,0.902-0.558,1.341-0.263l0.162,0.111c0.441,0.299,0.556,0.9,0.258,1.341
		C43.264,255.686,42.96,255.834,42.651,255.834z M204.183,252.55c-0.287,0-0.572-0.128-0.762-0.373
		c-0.328-0.422-0.253-1.028,0.17-1.355l0.153-0.119c0.417-0.328,1.024-0.255,1.354,0.169c0.328,0.422,0.253,1.028-0.17,1.355
		l-0.153,0.119C204.599,252.484,204.39,252.55,204.183,252.55z M37.771,252.367c-0.204,0-0.409-0.064-0.585-0.196l0.585-0.77
		l-0.717,0.671c-0.434-0.309-0.534-0.913-0.224-1.347c0.311-0.435,0.911-0.535,1.349-0.225c0.008,0.006,0.17,0.126,0.177,0.131
		c0.424,0.323,0.507,0.929,0.185,1.353C38.35,252.235,38.062,252.367,37.771,252.367z M208.844,248.788
		c-0.279,0-0.558-0.122-0.749-0.356c-0.338-0.414-0.275-1.022,0.14-1.359c0.408-0.343,1.085-0.349,1.428,0.056
		c0.345,0.408,0.362,0.96-0.045,1.305l-0.164,0.136C209.274,248.717,209.059,248.788,208.844,248.788z M32.959,248.683
		c-0.181,0-0.362-0.06-0.526-0.191l-0.164-0.133c-0.411-0.339-0.47-0.949-0.13-1.36c0.343-0.41,0.951-0.469,1.36-0.128
		c0.417,0.332,0.555,0.995,0.222,1.412C33.519,248.538,33.24,248.683,32.959,248.683z M213.376,244.875
		c-0.264,0-0.526-0.107-0.719-0.32c-0.357-0.396-0.324-1.007,0.072-1.364l0.153-0.135c0.396-0.352,1.007-0.318,1.362,0.084
		c0.355,0.399,0.317,1.009-0.083,1.363l-0.138,0.124C213.839,244.792,213.606,244.875,213.376,244.875z M28.368,244.822
		c-0.189,0-0.377-0.066-0.543-0.21c-0.006-0.004-0.155-0.135-0.16-0.14c-0.396-0.356-0.428-0.968-0.072-1.364
		c0.36-0.396,0.971-0.427,1.366-0.072c0.392,0.355,0.5,1.023,0.149,1.42C28.904,244.69,28.636,244.822,28.368,244.822z
		 M217.788,240.821c-0.257,0-0.513-0.102-0.703-0.305c-0.366-0.388-0.347-1,0.041-1.365l0.141-0.133
		c0.389-0.365,0.998-0.348,1.366,0.042c0.366,0.389,0.347,1-0.042,1.365l-0.141,0.133
		C218.264,240.734,218.026,240.821,217.788,240.821z M23.945,240.774c-0.2,0-0.398-0.074-0.568-0.233
		c-0.004-0.005-0.149-0.141-0.153-0.146c-0.381-0.374-0.389-0.985-0.015-1.366c0.372-0.38,0.986-0.387,1.366-0.015
		c0.379,0.371,0.458,1.043,0.09,1.425C24.46,240.654,24.201,240.774,23.945,240.774z M222.091,236.648
		c-0.253,0-0.507-0.099-0.696-0.297c-0.37-0.385-0.358-0.996,0.026-1.366c0.375-0.378,1.051-0.439,1.428-0.06
		c0.377,0.376,0.439,0.927,0.062,1.304l-0.151,0.15C222.572,236.559,222.332,236.648,222.091,236.648z M19.695,236.549
		c-0.211,0-0.421-0.081-0.592-0.257c-0.004-0.006-0.143-0.149-0.147-0.154c-0.366-0.389-0.347-1.001,0.043-1.366
		c0.383-0.362,1-0.348,1.364,0.043c0.362,0.386,0.413,1.061,0.032,1.428C20.189,236.441,19.94,236.549,19.695,236.549z
		 M226.35,232.437c-0.253,0-0.507-0.099-0.696-0.297c-0.37-0.385-0.358-0.996,0.026-1.366c0.375-0.377,1.049-0.439,1.428-0.06
		c0.377,0.377,0.439,0.927,0.062,1.304l-0.151,0.15C226.831,232.348,226.592,232.437,226.35,232.437z M15.62,232.155
		c-0.224,0-0.441-0.089-0.615-0.281c-0.006-0.006-0.138-0.155-0.143-0.16c-0.347-0.404-0.304-1.014,0.102-1.362
		c0.402-0.346,1.013-0.304,1.362,0.1c0.345,0.401,0.368,1.077-0.028,1.427C16.094,232.058,15.854,232.155,15.62,232.155z
		 M230.598,228.212c-0.251,0-0.5-0.097-0.69-0.289c-0.373-0.381-0.366-0.993,0.015-1.366c0.373-0.376,1.052-0.444,1.43-0.065
		c0.377,0.377,0.443,0.923,0.066,1.301l-0.145,0.143C231.087,228.121,230.841,228.212,230.598,228.212z M11.72,227.604
		c-0.236,0-0.464-0.098-0.637-0.308c-0.002-0.003-0.128-0.156-0.13-0.159c-0.336-0.415-0.272-1.022,0.143-1.358
		c0.415-0.336,1.024-0.272,1.358,0.145c0.334,0.412,0.334,1.092-0.077,1.428C12.176,227.516,11.944,227.604,11.72,227.604z
		 M234.837,223.977c-0.243,0-0.489-0.092-0.675-0.275c-0.381-0.373-0.389-0.986-0.015-1.367c0.002-0.002,0.141-0.142,0.143-0.143
		c0.377-0.377,0.988-0.377,1.366,0c0.377,0.377,0.377,0.988,0,1.366l-0.683-0.683l0.555,0.813
		C235.336,223.88,235.087,223.977,234.837,223.977z M239.075,219.747c-0.251,0-0.5-0.097-0.69-0.29
		c-0.373-0.381-0.366-0.993,0.015-1.366c0.374-0.376,1.053-0.444,1.43-0.065c0.377,0.377,0.443,0.923,0.066,1.301l-0.145,0.143
		C239.564,219.655,239.318,219.747,239.075,219.747z M243.321,215.528c-0.253,0-0.508-0.099-0.696-0.297
		c-0.37-0.385-0.358-0.996,0.026-1.366c0.375-0.378,1.049-0.439,1.428-0.06c0.377,0.377,0.439,0.927,0.062,1.304l-0.151,0.15
		C243.802,215.438,243.563,215.528,243.321,215.528z M247.592,211.33c-0.257,0-0.513-0.102-0.704-0.305
		c-0.366-0.389-0.347-1,0.042-1.365c0.383-0.36,1.058-0.416,1.424-0.036c0.368,0.378,0.432,0.915,0.058,1.287
		c-0.008,0.008-0.151,0.149-0.158,0.156C248.067,211.243,247.829,211.33,247.592,211.33z M251.887,207.161
		c-0.247,0-0.494-0.094-0.683-0.283c-0.377-0.377-0.377-0.988,0-1.366l0.16-0.155c0.389-0.366,0.998-0.348,1.366,0.043
		c0.366,0.388,0.347,1-0.041,1.365l-0.119,0.113C252.381,207.067,252.134,207.161,251.887,207.161z M256.221,203.033
		c-0.255,0-0.507-0.1-0.698-0.297c-0.368-0.386-0.355-0.997,0.03-1.366c0.002-0.003,0.143-0.137,0.145-0.139
		c0.389-0.366,1-0.348,1.366,0.042c0.366,0.389,0.347,1-0.042,1.365l-0.662-0.704l0.528,0.829
		C256.702,202.943,256.461,203.033,256.221,203.033z M260.598,198.956c-0.26,0-0.521-0.105-0.711-0.312
		c-0.36-0.392-0.336-1.004,0.057-1.365c0.394-0.361,1.077-0.401,1.435-0.008c0.362,0.392,0.408,0.939,0.015,1.3l-0.141,0.13
		C261.065,198.872,260.831,198.956,260.598,198.956z M265.03,194.937c-0.266,0-0.532-0.11-0.723-0.326
		c-0.355-0.399-0.317-1.009,0.083-1.363c0.396-0.351,1.077-0.38,1.432,0.016c0.355,0.397,0.392,0.941-0.002,1.297
		c-0.004,0.002-0.149,0.132-0.151,0.134C265.487,194.857,265.259,194.937,265.03,194.937z M269.525,190.989
		c-0.264,0-0.526-0.107-0.719-0.32c-0.357-0.396-0.324-1.007,0.074-1.364c0.006-0.007,0.158-0.139,0.166-0.145
		c0.407-0.34,1.019-0.294,1.362,0.114c0.343,0.406,0.294,1.016-0.113,1.361l-0.624-0.738l0.5,0.843
		C269.987,190.907,269.755,190.989,269.525,190.989z M274.092,187.126c-0.279,0-0.558-0.122-0.749-0.356
		c-0.338-0.414-0.275-1.022,0.14-1.359c0.409-0.337,1.092-0.338,1.43,0.074c0.338,0.411,0.355,0.957-0.057,1.296
		c-0.002,0.002-0.153,0.126-0.155,0.127C274.522,187.055,274.307,187.126,274.092,187.126z M278.74,183.357
		c-0.277,0-0.553-0.12-0.745-0.35c-0.339-0.411-0.281-1.021,0.13-1.36c0.008-0.007,0.166-0.132,0.174-0.138
		c0.417-0.328,1.024-0.253,1.354,0.169c0.328,0.422,0.253,1.028-0.17,1.355l-0.592-0.762l0.464,0.864
		C279.176,183.285,278.957,183.357,278.74,183.357z M283.471,179.698c-0.296,0-0.59-0.137-0.779-0.395
		c-0.315-0.43-0.223-1.035,0.209-1.35c0.424-0.324,1.103-0.294,1.422,0.132c0.322,0.424,0.311,0.978-0.113,1.301l-0.17,0.125
		C283.869,179.637,283.669,179.698,283.471,179.698z M288.294,176.159c-0.298,0-0.594-0.139-0.783-0.4
		c-0.313-0.433-0.215-1.036,0.217-1.349c0.002-0.001,0.16-0.114,0.16-0.115c0.438-0.309,1.037-0.211,1.349,0.224
		c0.309,0.434,0.209,1.037-0.224,1.347l-0.562-0.786l0.409,0.895C288.688,176.1,288.49,176.159,288.294,176.159z M293.215,172.757
		c-0.313,0-0.622-0.154-0.807-0.437c-0.292-0.446-0.168-1.045,0.277-1.337c0.443-0.287,1.118-0.225,1.413,0.219
		c0.294,0.441,0.258,0.984-0.181,1.281c-0.004,0.003-0.168,0.114-0.172,0.117C293.581,172.706,293.398,172.757,293.215,172.757z
		 M298.238,169.506c-0.323,0-0.638-0.162-0.821-0.456c-0.281-0.453-0.141-1.049,0.311-1.33c0.453-0.284,1.128-0.194,1.413,0.26
		c0.281,0.453,0.223,0.998-0.23,1.279l-0.164,0.102C298.589,169.459,298.414,169.506,298.238,169.506z M303.371,166.42
		c-0.33,0-0.653-0.171-0.834-0.477c-0.27-0.46-0.115-1.052,0.345-1.321l0.181-0.104c0.456-0.262,1.051-0.101,1.315,0.364
		c0.264,0.464,0.1,1.053-0.364,1.317l-0.155,0.089C303.707,166.378,303.537,166.42,303.371,166.42z M308.607,163.517
		c-0.349,0-0.687-0.191-0.858-0.522c-0.245-0.474-0.059-1.057,0.415-1.302c0.47-0.248,1.135-0.117,1.386,0.356
		c0.251,0.471,0.153,1.013-0.317,1.265l-0.183,0.096C308.909,163.482,308.756,163.517,308.607,163.517z M313.951,160.81
		c-0.362,0-0.711-0.206-0.875-0.557c-0.226-0.483-0.017-1.058,0.466-1.285c0.479-0.228,1.141-0.071,1.371,0.41
		c0.234,0.48,0.115,1.018-0.366,1.251l-0.187,0.09C314.228,160.78,314.089,160.81,313.951,160.81z M484.311,159.962
		c-0.094,0-0.191-0.014-0.285-0.043l-0.191-0.058c-0.509-0.158-0.794-0.7-0.636-1.209c0.158-0.508,0.694-0.79,1.209-0.636
		l0.187,0.058c0.509,0.157,0.796,0.698,0.638,1.207C485.105,159.696,484.724,159.962,484.311,159.962z M319.402,158.313
		c-0.372,0-0.726-0.216-0.885-0.579c-0.213-0.488,0.009-1.057,0.498-1.271l0.179-0.078c0.485-0.211,1.056,0.012,1.269,0.5
		c0.213,0.49-0.009,1.058-0.5,1.271l-0.176,0.076C319.663,158.288,319.533,158.313,319.402,158.313z M478.54,158.287
		c-0.083,0-0.17-0.011-0.255-0.034l-0.187-0.051c-0.515-0.141-0.817-0.671-0.677-1.186c0.141-0.513,0.666-0.822,1.186-0.678
		l0.187,0.051c0.515,0.141,0.817,0.671,0.677,1.186C479.355,158.005,478.965,158.287,478.54,158.287z M472.744,156.757
		c-0.079,0-0.16-0.009-0.241-0.03l0.241-0.936l-0.415,0.891c-0.517-0.125-0.836-0.648-0.711-1.166
		c0.126-0.519,0.651-0.837,1.168-0.711c0.004,0.001,0.194,0.049,0.2,0.05c0.517,0.133,0.826,0.66,0.694,1.176
		C473.566,156.467,473.174,156.757,472.744,156.757z M325.378,155.947l-0.436-0.868l-0.34-0.904l0.181-0.069
		c0.494-0.184,1.056,0.066,1.243,0.565c0.189,0.5-0.064,1.056-0.564,1.244l-0.34-0.905L325.378,155.947z M466.923,155.333
		c-0.075,0-0.151-0.008-0.228-0.027l0.228-0.938l-0.4,0.898c-0.521-0.119-0.847-0.636-0.728-1.156
		c0.119-0.519,0.634-0.846,1.154-0.728c0.006,0.002,0.196,0.047,0.202,0.048c0.517,0.125,0.836,0.648,0.711,1.166
		C467.755,155.037,467.359,155.333,466.923,155.333z M330.569,154.011c-0.409,0-0.79-0.262-0.921-0.673
		c-0.162-0.507,0.119-1.051,0.628-1.213c0.504-0.161,1.135,0.084,1.302,0.587c0.166,0.502-0.011,1.014-0.513,1.185
		c-0.006,0.003-0.196,0.066-0.204,0.069C330.765,153.997,330.665,154.011,330.569,154.011z M461.079,154.007
		c-0.07,0-0.141-0.007-0.213-0.024l0.213-0.942l-0.383,0.905c-0.522-0.107-0.858-0.619-0.751-1.14
		c0.108-0.525,0.626-0.851,1.139-0.752c0.007,0.001,0.202,0.044,0.207,0.045c0.521,0.119,0.847,0.636,0.728,1.156
		C461.919,153.703,461.521,154.007,461.079,154.007z M455.203,152.773c-0.059,0-0.117-0.006-0.177-0.017
		c-0.002-0.001-0.194-0.039-0.196-0.04c-0.522-0.108-0.86-0.619-0.751-1.14c0.106-0.525,0.628-0.854,1.139-0.752
		c0.521,0.107,0.952,0.634,0.847,1.155C455.973,152.441,455.639,152.773,455.203,152.773z M336.281,152.225
		c-0.417,0-0.802-0.272-0.926-0.691c-0.151-0.511,0.14-1.049,0.651-1.201c0.004,0,0.191-0.055,0.192-0.056
		c0.524-0.147,1.047,0.148,1.196,0.661c0.147,0.512-0.149,1.048-0.66,1.195l-0.268-0.928l0.091,0.98
		C336.464,152.213,336.371,152.225,336.281,152.225z M449.322,151.635c-0.051,0-0.106-0.005-0.16-0.015l-0.209-0.038
		c-0.523-0.104-0.864-0.611-0.76-1.135c0.102-0.524,0.611-0.868,1.134-0.761c0.524,0.093,0.962,0.609,0.87,1.135
		C450.112,151.291,449.771,151.635,449.322,151.635z M342.062,150.688c-0.439,0-0.836-0.3-0.939-0.744
		c-0.123-0.52,0.198-1.039,0.719-1.162c0.507-0.123,1.13,0.17,1.256,0.69c0.126,0.519-0.102,1.018-0.619,1.144l-0.196,0.047
		C342.21,150.679,342.134,150.688,342.062,150.688z M443.425,150.588c-0.049,0-0.098-0.004-0.149-0.012l-0.209-0.036
		c-0.524-0.095-0.871-0.598-0.777-1.122c0.094-0.527,0.6-0.882,1.124-0.777c0.526,0.085,0.97,0.595,0.885,1.121
		C444.221,150.238,443.88,150.588,443.425,150.588z M437.508,149.634c-0.043,0-0.089-0.004-0.134-0.01
		c-0.008-0.001-0.204-0.031-0.209-0.032c-0.526-0.088-0.883-0.585-0.794-1.111c0.089-0.526,0.604-0.886,1.111-0.794
		c0.523,0.087,0.973,0.593,0.89,1.117C438.299,149.281,437.965,149.634,437.508,149.634z M348.187,149.371l-0.279-0.93l-0.181-0.949
		l0.19-0.037c0.505-0.098,1.03,0.242,1.13,0.768c0.1,0.523-0.243,1.03-0.768,1.13l-0.181-0.949L348.187,149.371z M431.582,148.777
		c-0.04,0-0.081-0.003-0.123-0.008c-0.006-0.001-0.204-0.028-0.209-0.029c-0.526-0.079-0.89-0.572-0.809-1.099
		c0.079-0.529,0.577-0.884,1.1-0.81c0.522,0.079,0.981,0.579,0.905,1.103C432.378,148.417,432.044,148.777,431.582,148.777z
		 M353.803,148.37c-0.47,0-0.881-0.342-0.953-0.822c-0.081-0.527,0.283-1.02,0.809-1.099c0.523-0.081,1.113,0.262,1.194,0.79
		c0.083,0.524-0.179,1.003-0.703,1.087c-0.004,0-0.198,0.031-0.2,0.031C353.901,148.366,353.852,148.37,353.803,148.37z
		 M425.643,148.018c-0.038,0-0.075-0.002-0.115-0.007l-0.192-0.023c-0.53-0.062-0.909-0.542-0.845-1.072
		c0.062-0.529,0.536-0.915,1.071-0.846l0.192,0.023c0.53,0.062,0.909,0.542,0.845,1.072
		C426.543,147.657,426.126,148.018,425.643,148.018z M359.731,147.525c-0.483,0-0.9-0.361-0.958-0.853
		c-0.062-0.53,0.317-1.01,0.847-1.072c0.522-0.073,1.103,0.291,1.173,0.82c0.07,0.528-0.211,1.003-0.741,1.072l-0.206,0.027
		C359.809,147.524,359.769,147.525,359.731,147.525z M419.688,147.361c-0.034,0-0.068-0.002-0.1-0.005l-0.192-0.02
		c-0.532-0.055-0.917-0.529-0.862-1.06c0.055-0.531,0.568-0.907,1.058-0.862l0.192,0.02c0.532,0.055,0.917,0.529,0.862,1.06
		C420.596,146.992,420.177,147.361,419.688,147.361z M365.68,146.857c-0.494,0-0.917-0.378-0.96-0.881
		c-0.047-0.531,0.345-1,0.877-1.047c0.509-0.052,1.094,0.322,1.149,0.853c0.055,0.531-0.241,0.997-0.773,1.052l-0.206,0.02
		C365.739,146.856,365.709,146.857,365.68,146.857z M413.722,146.81c-0.03,0-0.058-0.001-0.087-0.004l0.085-0.962l-0.264,0.947
		c-0.532-0.039-0.93-0.502-0.892-1.034c0.04-0.534,0.521-0.93,1.035-0.892c0.004,0,0.202,0.017,0.206,0.017
		c0.532,0.047,0.924,0.516,0.877,1.047C414.639,146.431,414.216,146.81,413.722,146.81z M407.746,146.367
		c-0.019,0-0.038-0.001-0.057-0.002c-0.006,0-0.202-0.012-0.207-0.013c-0.532-0.039-0.93-0.502-0.892-1.034
		c0.04-0.533,0.524-0.936,1.036-0.892c0.528,0.039,1.022,0.504,0.988,1.033C408.58,145.969,408.244,146.367,407.746,146.367z
		 M371.649,146.354c-0.507,0-0.934-0.396-0.964-0.909c-0.032-0.532,0.375-0.989,0.907-1.021c0.522-0.032,1.083,0.365,1.117,0.893
		c0.034,0.53-0.268,0.982-0.796,1.02c-0.006,0.001-0.202,0.014-0.207,0.014C371.686,146.353,371.668,146.354,371.649,146.354z
		 M401.765,146.04c-0.013,0-0.028,0-0.043-0.001l-0.192-0.008c-0.532-0.024-0.945-0.474-0.921-1.007
		c0.023-0.519,0.449-0.923,0.964-0.923c0.013,0,0.028,0,0.043,0.001c0.532,0.024,1.041,0.479,1.017,1.012
		C402.61,145.631,402.274,146.04,401.765,146.04z M377.626,146.008c-0.515,0-0.941-0.405-0.964-0.923
		c-0.025-0.533,0.389-0.984,0.921-1.007c0.521-0.008,1.081,0.385,1.104,0.918c0.024,0.533-0.292,0.98-0.824,1.004l-0.192,0.008
		C377.655,146.008,377.639,146.008,377.626,146.008z M395.778,145.834c-0.009,0-0.019,0-0.028,0l0.028-0.966l-0.208,0.961
		c-0.532-0.008-0.958-0.447-0.951-0.98c0.007-0.528,0.439-0.952,0.966-0.952c0.004,0,0.009,0,0.015,0
		c0.004,0,0.202,0.005,0.206,0.005c0.534,0.016,0.953,0.461,0.938,0.994C396.729,145.42,396.299,145.834,395.778,145.834z
		 M383.61,145.81c-0.521,0-0.951-0.414-0.966-0.938c-0.015-0.533,0.404-0.978,0.938-0.994c0.004,0,0.202-0.004,0.206-0.004
		c0.006,0,0.011,0,0.015,0c0.526,0,0.958,0.423,0.966,0.952c0.008,0.533-0.419,0.972-0.951,0.98l-0.015-0.966l-0.164,0.97
		C383.628,145.81,383.619,145.81,383.61,145.81z M389.789,145.754c-0.006,0-0.202-0.001-0.207-0.001
		c-0.532-0.008-0.958-0.447-0.951-0.98c0.008-0.528,0.44-0.952,0.966-0.952c0.004,0,0.009,0,0.015,0
		c0.53,0.008,1.051,0.442,1.047,0.973C390.655,145.326,390.319,145.754,389.789,145.754z"/>
</g>
<polygon style="fill:#E08D9B;" points="603.779,850.394 -8.504,850.394 -8.504,823.084 603.779,807.19 "/>
<g>
	<g>
		<path style="fill:#DB9D8F;" d="M191.2,277.877c0.383-3.206,0.642-6.061,0.712-8.302c0.448-14.314-27.732-17.369-27.732-17.369
			V239.01h-24.766v13.195c0,0-28.18,3.056-27.732,17.369c0.07,2.241,0.329,5.096,0.712,8.302
			C138.523,289.903,164.793,289.776,191.2,277.877z"/>
		<path style="fill:#FFFFFF;" d="M185.928,254.848c-22.874,5.307-43.879,6.05-62.102,0c-0.908,0-1.383-0.458-1.472-0.958
			c-11.488,2.137-26.886,6.684-26.494,15.685c0.098,2.241,0.46,5.096,0.994,8.302c36.459,12.026,73.115,11.898,109.962,0
			c0.534-3.206,0.896-6.061,0.994-8.302C208.152,261.739,196.524,257.282,185.928,254.848z"/>
		<path style="fill:#484B60;" d="M227.78,290.852c-4.598-7.106-18.116-27.252-26.697-32.228c-7.073-3.72-36.903-7.313-36.903-7.313
			L151.7,284.118l-12.405-32.807c0,0-29.905,3.593-36.978,7.313c-8.581,4.976-22.099,25.122-26.697,32.228H227.78z"/>
		<g>
			<path style="fill:#FFC25C;" d="M223.157,138.506c-3.186-12.712-9.902-24.598-19.682-33.392
				c-11.148-10.024-25.662-14.693-40.339-16.455c-3.678-0.442-7.379-0.65-11.078-0.637c-3.699-0.013-7.4,0.195-11.078,0.637
				c-14.677,1.762-29.19,6.431-40.339,16.455c-9.78,8.794-16.496,20.68-19.682,33.392c-3.939,15.717-3.526,32.823-0.946,48.356
				c1.655,9.967,5.752,19.672,12.748,26.92c6.738,6.982,14.906,12.628,23.424,17.131c10.819,5.756,22.564,8.246,29.496,9.286
				c2.119,0.318,4.248,0.461,6.376,0.447c2.128,0.014,4.257-0.13,6.376-0.447c6.932-1.04,18.677-3.53,29.496-9.286
				c8.519-4.503,16.686-10.149,23.424-17.131c6.995-7.248,11.092-16.953,12.748-26.92
				C226.684,171.329,227.096,154.222,223.157,138.506z"/>
			<path style="fill:#DB9D8F;" d="M89.175,151.668c4.175-43.239,62.622-45.326,62.622-45.326s58.447,2.087,62.622,45.326
				c1.324,13.718,3.654,28.648,1.337,42.407c-1.475,8.761-5.126,17.291-11.358,23.662c-6.004,6.137-13.281,11.1-20.872,15.058
				c-9.633,5.056-20.09,7.245-26.267,8.161c-3.63,0.538-7.293,0.538-10.923,0c-6.178-0.915-16.635-3.105-26.268-8.161
				c-7.591-3.958-14.868-8.921-20.872-15.058c-6.233-6.371-9.883-14.902-11.358-23.662
				C85.521,180.316,87.851,165.387,89.175,151.668z"/>
			<path style="fill:#DB9D8F;" d="M90.406,172.299c0,0-10.13-11.26-19.69-5.522c-8.992,5.089-9.105,46.955,23.219,35.388
				C126.258,190.597,90.406,172.299,90.406,172.299z"/>
			<path style="fill:#DB9D8F;" d="M212.995,172.299c0,0,10.13-11.26,19.69-5.522c8.991,5.089,9.105,46.955-23.219,35.388
				S212.995,172.299,212.995,172.299z"/>
			<path style="fill:#C1776B;" d="M151.965,242.373c-3.757,0-7.57-0.668-12.73-2.004l0.362-1.402
				c10.024,2.593,14.809,2.596,24.395,0.002l0.377,1.398C159.429,241.705,155.724,242.373,151.965,242.373z"/>
			<g>
				<path style="fill:#C1776B;" d="M74.772,193.473c-5.363-12.122,2.656-21.396,2.737-21.489l1.087,0.959
					c-0.308,0.35-7.477,8.689-2.499,19.943L74.772,193.473z"/>
				
					<rect x="78.185" y="178.746" transform="matrix(0.5497 -0.8354 0.8354 0.5497 -118.7327 149.0838)" style="fill:#C1776B;" width="1.449" height="11.843"/>
			</g>
			<g>
				<path style="fill:#C1776B;" d="M228.821,193.473l-1.324-0.587c4.991-11.282-2.424-19.857-2.499-19.942l1.087-0.96
					C226.165,172.076,234.184,181.35,228.821,193.473z"/>
				
					<rect x="218.762" y="183.943" transform="matrix(0.8356 -0.5493 0.5493 0.8356 -64.5045 153.7645)" style="fill:#C1776B;" width="11.843" height="1.449"/>
			</g>
			<path style="fill:#FFC25C;" d="M104.087,114.418c7.726,21.9,24.811,34.871,51.88,38.319c-5.748-3.775-9.276-8.783-9.981-15.271
				c7.135,12.634,21.82,19.465,40.114,15.146c-2.841-2.796-6.286-8.443-5.782-13.098c0,0,13.711,14.17,36.423,11.097l-4.434-20.828
				c0,0-21.248-16.731-21.465-17.585s-24.173-10.84-24.173-10.84h-27.603l-22.706,6.06L104.087,114.418z"/>
			<path style="fill:#FFC25C;" d="M111.407,123.639c-2.042,17.685-11.784,29.165-26.064,36.988l7.739-38.356l15.479-6.374
				L111.407,123.639z"/>
			<g>
				<g>
					<path style="fill:#C1776B;" d="M151.654,200.902c-5.208,0-10.461-1.093-15.833-3.279l0.547-1.341
						c10.374,4.221,20.283,4.22,30.292,0.003l0.562,1.336C162.028,199.809,156.863,200.902,151.654,200.902z"/>
					<path style="fill:#C1776B;" d="M151.565,204.983c-1.939,0-3.893-0.398-5.853-1.195l0.547-1.341
						c3.597,1.463,7.034,1.466,10.507,0.003l0.562,1.336C155.432,204.584,153.506,204.983,151.565,204.983z"/>
					<path style="fill:#C1776B;" d="M135.324,200.194l-1-1.049c1.288-1.228,1.83-2.813,1.65-4.846l1.445-0.126
						C137.635,196.639,136.929,198.665,135.324,200.194z"/>
					<path style="fill:#C1776B;" d="M168.077,200.194c-1.607-1.529-2.313-3.555-2.098-6.021l1.445,0.126
						c-0.179,2.033,0.362,3.618,1.652,4.846L168.077,200.194z"/>
				</g>
				<path style="fill:#C1776B;" d="M146.287,185.607l-1.351-0.519c1.056-2.75,3.733-4.456,6.843-4.397
					c2.948,0.075,5.408,1.814,6.264,4.431l-1.377,0.451c-0.803-2.46-3.071-3.387-4.925-3.434
					C149.269,182.099,147.123,183.437,146.287,185.607z"/>
				<g>
					<g>
						<path style="fill:#FFFFFF;" d="M199.243,175.018c-13.373-9.16-27.323-3.778-33.217,7.451
							C179.793,192.206,192.357,188.407,199.243,175.018z"/>
						<path style="fill:#484B60;" d="M175.889,187.249c-3.538-1.705-5.926-5.377-5.782-9.554c0.011-0.31,0.04-0.615,0.078-0.917
							c4.38-4.414,10.412-6.894,16.969-6.318c2.161,1.95,3.481,4.801,3.373,7.937c-0.151,4.39-3.056,8.026-6.994,9.335
							C181.108,188.081,178.548,187.934,175.889,187.249z"/>
						<path style="fill:#484B60;" d="M166.632,182.867l-1.211-0.794c4.214-6.434,9.741-10.514,15.982-11.798
							c5.985-1.224,12.293,0.201,18.238,4.139l-0.8,1.207c-5.617-3.721-11.536-5.078-17.148-3.927
							C175.841,172.899,170.631,176.762,166.632,182.867z"/>
					</g>
					<g>
						<path style="fill:#FFFFFF;" d="M104.087,175.23c13.256-9.329,27.273-4.125,33.309,7.029
							C123.754,192.169,111.143,188.53,104.087,175.23z"/>
						<path style="fill:#484B60;" d="M127.595,187.163c3.516-1.75,5.857-5.452,5.66-9.626c-0.015-0.31-0.048-0.614-0.09-0.916
							c-4.436-4.357-10.498-6.761-17.047-6.101c-2.136,1.977-3.42,4.845-3.272,7.979c0.207,4.388,3.157,7.987,7.112,9.245
							C122.387,188.061,124.945,187.881,127.595,187.163z"/>
						<path style="fill:#484B60;" d="M136.797,182.667c-8.285-12.148-20.657-14.766-32.303-6.838l-0.815-1.198
							c12.378-8.428,25.529-5.667,34.313,7.219L136.797,182.667z"/>
					</g>
				</g>
				<ellipse style="fill:#FFC25C;" cx="120.576" cy="162.162" rx="9.302" ry="3.587"/>
				<ellipse style="fill:#FFC25C;" cx="180.317" cy="162.162" rx="9.302" ry="3.587"/>
				<rect x="150.759" y="222.202" style="fill:#C1776B;" width="1.449" height="5.121"/>
				<path style="fill:#FFFFFF;" d="M115.052,200.824c-16.265,0-29.5-12.722-29.5-28.36c0-15.637,13.234-28.359,29.5-28.359
					c16.267,0,29.501,12.722,29.501,28.359C144.553,188.102,131.319,200.824,115.052,200.824z M115.052,145.553
					c-15.467,0-28.051,12.072-28.051,26.911c0,14.839,12.583,26.912,28.051,26.912s28.053-12.072,28.053-26.912
					C143.105,157.626,130.52,145.553,115.052,145.553z"/>
				<path style="fill:#FFFFFF;" d="M187.915,200.824c-16.267,0-29.501-12.722-29.501-28.36c0-15.637,13.234-28.359,29.501-28.359
					c16.265,0,29.5,12.722,29.5,28.359C217.415,188.102,204.181,200.824,187.915,200.824z M187.915,145.553
					c-15.467,0-28.053,12.072-28.053,26.911c0,14.839,12.585,26.912,28.053,26.912s28.051-12.072,28.051-26.912
					C215.966,157.626,203.383,145.553,187.915,145.553z"/>
				<path style="fill:#FFFFFF;" d="M158.674,173.02c-4.506-3.769-10.141-3.773-14.364-0.015l-0.962-1.082
					c4.718-4.197,11.246-4.204,16.254-0.014L158.674,173.02z"/>
			</g>
			<path style="fill:#DB9B3E;" d="M110.251,128.385c-3.835-3.642-6.515-12.741-6.628-13.126l1.392-0.406
				c0.026,0.09,2.682,9.109,6.232,12.481L110.251,128.385z"/>
			<path style="fill:#DB9B3E;" d="M214.354,151.601l-0.038-1.449c0.043-0.001,4.395-0.143,8.317-2.15l0.66,1.29
				C219.069,151.453,214.544,151.595,214.354,151.601z"/>
		</g>
	</g>
	<g>
		<polygon style="fill:#272A38;" points="153.031,22.355 52.582,57.151 52.56,60.323 252.981,61.61 253.002,58.438 		"/>
		<polygon style="fill:#484B60;" points="153.02,25.528 52.571,60.323 152.579,90.896 252.991,61.61 		"/>
		<g>
			<path style="fill:#484B60;" d="M195.936,99.425c-19.179-8.282-66.796-8.68-86.795-0.649l0.268-39.716l86.909,0.558
				L195.936,99.425z"/>
			<path style="fill:#272A38;" d="M196.951,78.202l-1.516-0.01l0.083-12.281c-14.252-12.356-71.659-12.744-85.392-0.559
				l-0.084,12.292l-1.515-0.01l0.087-12.923l0.233-0.217c13.701-12.763,73.706-12.391,87.947,0.552l0.243,0.222L196.951,78.202z"/>
		</g>
	</g>
	<path style="fill:#FFC25C;" d="M46.571,120.538l-0.2-1.435c32.644-4.522,33.125-23.584,33.591-42.019
		c0.39-15.54,0.796-31.609,20.626-38.12l0.453,1.377C82.18,46.533,81.806,61.39,81.408,77.121
		C80.929,96.159,80.433,115.846,46.571,120.538z"/>
	<g>
		<path style="fill:#FFC25C;" d="M53.831,125.702c-2.555,2.918-6.991,3.212-9.909,0.657c-2.918-2.555-3.212-6.991-0.657-9.909
			c2.555-2.918,6.991-3.212,9.909-0.657C56.091,118.348,56.385,122.784,53.831,125.702z"/>
		<path style="fill:#FFC25C;" d="M41.824,118.884c0,0-25.453-10.185-31.84,21.525c12.664-9.583,21.269,8.649,35.036-13.261
			L41.824,118.884z"/>
		<path style="fill:#DB9B3E;" d="M45.02,127.872c-0.109,0-0.219-0.024-0.325-0.076c-0.356-0.178-0.502-0.614-0.324-0.971
			c0.462-0.925,0.413-2.367-0.13-3.858c-0.59-1.62-1.652-2.962-2.705-3.417c-0.366-0.159-0.536-0.586-0.375-0.953
			c0.158-0.367,0.585-0.534,0.953-0.377c1.42,0.616,2.758,2.245,3.49,4.251c0.687,1.885,0.711,3.708,0.066,5.001
			C45.541,127.725,45.286,127.872,45.02,127.872z"/>
	</g>
</g>
<rect x="34.357" y="290.309" style="fill:#484B60;" width="247.152" height="1.449"/>
<g>
	<path style="fill:#CC7588;" d="M454.777,723.872c0,0-8.532,3.656,1.018,28.638c9.55,24.982,17.624,18.44,17.624,18.44l5.135-4.29
		l0.865-19.832l-8.675-18.45l-5.765-3.385L454.777,723.872z"/>
	<g>
		<path style="fill:#AAD1DF;" d="M385.134,746.681c5.991-4.688,46.68-7.267,85.427-22.509c34.51-13.575,61.407-35.251,63.905-36.221
			c5.303-2.06,15.988,8.124,22.119,23.912c6.131,15.788,5.388,31.202,0.085,33.261c-2.439,0.947-40.034,5.166-73.108,19.237
			c-36.668,15.689-66.016,41.145-73.805,43.182"/>
		<path style="fill:#82AEC4;" d="M408.149,772.89c6.575,16.93,7.295,32.445,1.609,34.653c-5.687,2.208-15.627-9.726-22.202-26.656
			c-6.575-16.93-7.296-32.445-1.609-34.653C391.634,744.026,401.574,755.96,408.149,772.89z"/>
		
			<ellipse transform="matrix(0.9322 -0.362 0.362 0.9322 -254.1461 196.9216)" style="fill:#AAD1DF;" cx="398.425" cy="776.667" rx="7.477" ry="26.23"/>
		<path style="fill:#82AEC4;" d="M405.294,795.18c-1.477,0-3.252-1.477-5.289-4.406c-2.098-3.018-4.254-7.26-6.072-11.944
			c-2.441-6.285-5.998-18.584-1.986-20.144c4.007-1.585,9.69,9.918,12.133,16.205l0,0c1.818,4.684,3.09,9.269,3.578,12.91
			c0.56,4.172,0.025,6.608-1.594,7.234C405.817,795.13,405.56,795.18,405.294,795.18z M392.771,760.464
			c-0.047,0-0.087,0.008-0.125,0.021c-0.977,0.381-1.109,6.844,3.086,17.646c1.766,4.544,3.846,8.643,5.859,11.538
			c2.241,3.226,3.52,3.661,3.772,3.565c0.266-0.104,0.904-1.275,0.379-5.176c-0.468-3.495-1.7-7.924-3.463-12.47l0,0
			C398.24,765.191,393.958,760.464,392.771,760.464z"/>
		<path style="fill:#82AEC4;" d="M534.466,687.951c0,0-30.162,19.03-66.538,33.105c-35.56,13.759-79.613,18.501-83.952,26.804
			c3.452-3.635,15.874-7.653,30.517,21.068c47.517-25.879,96.211-42.966,145.869-52.861
			C560.361,716.066,554.51,686.613,534.466,687.951z"/>
	</g>
	<path style="fill:#CC7588;" d="M454.777,723.872c13.914,3.315,25.63,33.179,18.641,47.078l15.063-6.597
		c2.446-1.071,4.231-3.258,4.745-5.878c2.316-11.817-6.692-34.702-16.36-40.506c-1.547-0.929-3.461-1.006-5.153-0.379
		L454.777,723.872z"/>
	<path style="fill:#E08D9B;" d="M465.556,744.066c0,0-14.983-30.369-64.95-30.663c5.219-4.697,11.66-8.889,20.107-12.251
		c-1.738-5.114-5.559-9.771-10.288-14.23c0,0,44.89-6.522,73.697,45.307L465.556,744.066z"/>
	<path style="fill:#CC7588;" d="M421.037,702.061l-0.649-1.818c0.266-0.096,6.602-2.328,14.224-3.05l0.181,1.924
		C427.409,699.815,421.099,702.039,421.037,702.061z"/>
	<path style="fill:#E08D9B;" d="M488.093,729.327c0,0-15.653-20.256,0.732-54.29c-4.922,1.986-9.907,4.969-14.994,9.59
		c-2.896-2.878-4.791-7.019-6.249-11.711c0,0-19.329,28.323,6.31,65.091L488.093,729.327z"/>
	<path style="fill:#CC7588;" d="M467.975,693.637l-1.649-1.007c3.035-4.963,6.676-8.545,6.828-8.694l1.351,1.381
		C474.47,685.353,470.878,688.888,467.975,693.637z"/>
	<path style="fill:#CC7588;" d="M470.577,735.241c-9.99-14.428-10.761-30.977-10.79-31.673l1.932-0.079
		c0.006,0.166,0.787,16.699,10.446,30.654L470.577,735.241z"/>
	<g>
		
			<ellipse transform="matrix(0.9447 -0.3278 0.3278 0.9447 -216.484 198.3854)" style="fill:#FFC25C;" cx="480.221" cy="741.341" rx="15.315" ry="17.242"/>
		<path style="fill:#DB9B3E;" d="M481.117,755.304c-5.444,0-10.742-3.846-12.817-9.826c-1.23-3.546-1.158-7.311,0.204-10.601
			c1.373-3.32,3.891-5.761,7.091-6.87c3.197-1.111,6.691-0.756,9.822,1c3.107,1.739,5.495,4.651,6.727,8.198
			c2.55,7.353-0.722,15.188-7.294,17.471C483.622,755.1,482.366,755.304,481.117,755.304z M479.35,728.822
			c-1.111,0-2.215,0.185-3.28,0.555c-2.803,0.971-5.016,3.122-6.228,6.053c-1.224,2.961-1.286,6.362-0.172,9.573
			c2.288,6.596,8.888,10.322,14.703,8.303c5.817-2.018,8.69-9.03,6.4-15.626c-1.113-3.212-3.267-5.842-6.064-7.409
			C482.994,729.311,481.162,728.822,479.35,728.822z"/>
	</g>
</g>
</svg>
